<?xml version="1.0" standalone="no"?>
<!DOCTYPE svg PUBLIC "-//W3C//DTD SVG 1.1//EN" "http://www.w3.org/Graphics/SVG/1.1/DTD/svg11.dtd" >
<svg xmlns="http://www.w3.org/2000/svg">
<metadata>
This is a custom SVG webfont generated by Font Squirrel.
Copyright   : Font software Copyright 1993 1994 2001 Adobe Systems Incorporated Typeface designs Copyright 2005 International Typeface Corporation All rights reserved
Foundry     : International Typeface Corporation
Foundry URL : httpwwwitcfontscom
</metadata>
<defs>
<font id="AvantGardeGothicITCW01DmRg" horiz-adv-x="1348" >
<font-face units-per-em="2048" ascent="1567" descent="-481" />
<missing-glyph horiz-adv-x="693" />
<glyph unicode=" "  horiz-adv-x="693" />
<glyph unicode="&#x09;" horiz-adv-x="693" />
<glyph unicode="&#xa0;" horiz-adv-x="693" />
<glyph unicode="!" horiz-adv-x="693" d="M150 0v260h272v-260h-272zM150 385v1131h272v-1131h-272z" />
<glyph unicode="&#x22;" horiz-adv-x="857" d="M39 1516h272l-55 -607h-164zM426 1516h272l-53 -607h-168z" />
<glyph unicode="#" horiz-adv-x="1266" d="M59 403l9 195h194l33 238h-174l8 194h193l55 404h205l-56 -404h187l55 404h205l-55 -404h157l-8 -194h-176l-33 -238h156l-8 -195h-177l-55 -403h-205l56 403h-187l-55 -403h-205l55 403h-174zM467 598h186l33 238h-186z" />
<glyph unicode="$" horiz-adv-x="1266" d="M119 510h270q4 -78 54.5 -127t127.5 -49q76 0 129.5 49t53.5 127q0 53 -19.5 87t-52.5 54.5t-73 32.5t-83 25q-78 23 -141 57.5t-110.5 83.5t-73 114.5t-25.5 149.5q0 135 74 238.5t207 140.5v262h258v-266q119 -39 186.5 -133t77.5 -217h-256q-16 53 -47 89t-92 36 q-57 0 -96 -42t-39 -100q0 -74 44 -105.5t105 -51.5q27 -10 53 -19l54 -16q154 -47 237.5 -147.5t83.5 -270.5q0 -152 -82 -264.5t-229 -153.5v-270h-258v268q-158 43 -248 148.5t-90 269.5z" />
<glyph unicode="%" horiz-adv-x="1881" d="M74 1176q0 76 28.5 143t78.5 117.5t117 80t144 29.5q76 0 143.5 -28.5t118 -80t79 -119t28.5 -142.5q0 -76 -28.5 -143.5t-79 -118t-118 -79t-143.5 -28.5t-143.5 28.5t-117.5 79t-78.5 118t-28.5 143.5zM301 1176q0 -57 42 -99.5t99 -42.5q59 0 100.5 42t41.5 102 q0 59 -41 100t-101 41q-59 0 -100 -42t-41 -101zM459 0l626 1516h209l-628 -1516h-207zM944 340q0 76 28.5 143.5t80 118.5t118 80t144.5 29q76 0 143.5 -30t117.5 -80t78.5 -117.5t28.5 -143.5t-28.5 -143.5t-78.5 -117.5t-117.5 -80t-143.5 -30q-78 0 -144.5 29t-118 80 t-80 117.5t-28.5 144.5zM1171 340q0 -59 42 -101t102 -42q59 0 100 42t41 101t-41 101t-100 42t-101.5 -42t-42.5 -101z" />
<glyph unicode="&#x26;" horiz-adv-x="1512" d="M70 451q0 78 20.5 140t58 114.5t90 94.5t115.5 79q-57 66 -92 130t-35 154q0 82 30 151.5t82 121t121.5 81t151.5 29.5q80 0 151 -27.5t125 -77.5t85 -119t31 -151q0 -133 -65 -222t-175 -150l139 -156l148 252h303l-260 -459l268 -291l-199 -176l-209 228 q-72 -98 -164 -163t-221 -65q-100 0 -191 37t-159.5 101.5t-108.5 153t-40 190.5zM342 438q0 -90 60.5 -146t148.5 -56q39 0 70.5 14t57.5 37.5t46 54.5t39 61l-238 259q-37 -16 -69.5 -37t-58 -47.5t-41 -60.5t-15.5 -79zM485 1163q0 -53 37 -97t72 -79q27 14 54.5 29.5 t49 36t34.5 46t13 60.5q0 59 -36.5 94t-96.5 35q-53 0 -90 -36t-37 -89z" />
<glyph unicode="'" horiz-adv-x="570" d="M90 1516h272l-53 -607h-166z" />
<glyph unicode="(" horiz-adv-x="898" d="M152 608q0 104 19 209t57 205t95.5 190.5t133.5 163.5q63 61 121.5 97t138.5 71v-295q-145 -119 -215 -286.5t-70 -352.5q0 -84 18.5 -175t53.5 -177t88 -160.5t125 -124.5v-295q-47 16 -84 35t-71 41.5t-64.5 50t-65.5 64.5q-68 72 -121 160t-88 184t-53 196.5 t-18 198.5z" />
<glyph unicode=")" horiz-adv-x="898" d="M76 -27q145 119 214.5 287t69.5 352q0 84 -18 175.5t-53 177.5t-89.5 160.5t-123.5 123.5v295q47 -16 84 -34.5t70.5 -41t64.5 -50t65 -64.5q68 -72 121.5 -160t88 -184.5t53 -196.5t18.5 -199q0 -104 -19.5 -208.5t-58.5 -205t-95 -190.5t-132 -164q-63 -61 -121.5 -97 t-138.5 -71v295z" />
<glyph unicode="*" horiz-adv-x="1021" d="M137 1307l209 -11l-113 170l115 80l105 -188l104 188l115 -80l-115 -170l209 11l-2 -138l-207 11l115 -170l-125 -74l-94 188l-97 -188l-125 74l117 170l-209 -11z" />
<glyph unicode="+" d="M98 395v246h394v395h245v-395h393v-246h-393v-395h-245v395h-394z" />
<glyph unicode="," horiz-adv-x="693" d="M150 0v272h272v-288q0 -127 -73 -200t-197 -73v137q37 8 60.5 18.5t36.5 28t17 43t4 62.5h-120z" />
<glyph unicode="-" horiz-adv-x="980" d="M145 471v242h570v-242h-570z" />
<glyph unicode="." horiz-adv-x="693" d="M150 0v272h272v-272h-272z" />
<glyph unicode="/" horiz-adv-x="1062" d="M12 -205l641 1721h277l-643 -1721h-275z" />
<glyph unicode="0" horiz-adv-x="1266" d="M66 492v544q0 115 37.5 209t107.5 161t164 103.5t209 36.5q109 0 201 -39t158.5 -107.5t103 -161.5t36.5 -202v-559q0 -113 -36.5 -206t-104.5 -160.5t-161 -104.5t-206 -37q-121 0 -211 40t-174 126q-74 76 -99 164.5t-25 192.5zM338 508q0 -57 14.5 -108.5t43 -89.5 t73.5 -60.5t106 -22.5t105.5 21.5t73 58.5t43 87t14.5 108v532q0 51 -16.5 97.5t-47 81t-73.5 55t-96 20.5q-117 0 -178.5 -76.5t-61.5 -187.5v-516z" />
<glyph unicode="1" horiz-adv-x="1266" d="M281 1257v259h462v-1516h-272v1257h-190z" />
<glyph unicode="2" horiz-adv-x="1266" d="M74 1020v24q0 104 39 195.5t105.5 160t157.5 107.5t195 39t195.5 -39t159 -105.5t106.5 -157.5t39 -195q0 -82 -23.5 -154t-64.5 -134.5t-94 -119.5t-111 -109l-307 -274h600v-258h-981v258l541 504q66 59 117 132t51 167q0 98 -60.5 162.5t-160.5 64.5q-63 0 -119 -32.5 t-84 -90.5q-20 -41 -24.5 -83t-4.5 -87h-270q-2 13 -2 25z" />
<glyph unicode="3" horiz-adv-x="1266" d="M57 457h273q4 -47 24.5 -89t53 -73t75.5 -49.5t92 -18.5t93.5 19.5t77 53.5t52 79t19.5 94q0 66 -24.5 114t-66.5 78.5t-96.5 45t-113.5 14.5h-45v258h47q39 0 73 9t60.5 29.5t42 50.5t15.5 73q0 66 -34 104.5t-102 38.5q-59 0 -95 -42t-40 -97h-272q10 131 73.5 229.5 t190.5 143.5q33 10 69 17t70 7q84 0 159 -32.5t131 -88t89 -130t33 -158.5q0 -86 -30.5 -152.5t-100.5 -116.5q123 -53 181.5 -157.5t58.5 -233.5q0 -109 -41 -202t-112 -160.5t-166 -106.5t-202 -39q-104 0 -195 37t-160 102.5t-110 155t-47 193.5z" />
<glyph unicode="4" horiz-adv-x="1266" d="M31 227v224l696 1065h229v-1031h160v-258h-160v-227h-272v227h-653zM324 485h360v570h-4z" />
<glyph unicode="5" horiz-adv-x="1266" d="M51 451h273q16 -94 77.5 -159t161.5 -65q57 0 104.5 21.5t82 58.5t54 86t19.5 105q0 53 -19.5 101t-54 85t-81.5 58.5t-101 21.5q-68 0 -116 -27.5t-89 -81.5l-243 68l143 793h686v-259h-481l-49 -278q47 20 95 31.5t99 11.5q106 0 194.5 -44t153 -117t100.5 -168 t36 -195q0 -111 -41 -207t-113 -168t-167 -113t-206 -41q-98 0 -190 38t-163 102.5t-116 153t-49 188.5z" />
<glyph unicode="6" horiz-adv-x="1266" d="M47 512q0 98 35 187t88 171l422 643h319l-336 -512q16 4 32 5.5t32 1.5q100 0 184 -41t145.5 -108.5t95.5 -157t34 -187.5q0 -111 -40 -210t-109.5 -173t-166 -118t-209.5 -44q-115 0 -211 43t-166.5 117t-109.5 172t-39 211zM319 500q0 -53 18.5 -102.5t52.5 -87.5 t81 -60.5t102 -22.5q53 0 99.5 21.5t80 57.5t53 83t19.5 100t-19.5 101.5t-54 85.5t-81.5 58.5t-103 21.5q-53 0 -98 -20.5t-78 -56.5t-52.5 -82t-19.5 -97z" />
<glyph unicode="7" horiz-adv-x="1266" d="M127 1257v259h893v-259l-547 -1257h-303l565 1257h-608z" />
<glyph unicode="8" horiz-adv-x="1266" d="M68 461q0 127 57 224t168 157q-63 61 -99 127.5t-36 158.5q0 88 31.5 165t88 133.5t132 88t163.5 31.5t165 -31.5t133.5 -88t88 -133t31.5 -165.5q0 -92 -36.5 -158.5t-100.5 -127.5q111 -59 168 -156.5t57 -224.5q0 -102 -41 -192.5t-110.5 -157t-161.5 -104.5t-193 -38 q-102 0 -193 38t-160.5 104.5t-110.5 157t-41 192.5zM340 461q0 -49 18.5 -91t50 -74t73.5 -50.5t91 -18.5t91.5 18.5t74 50.5t50 74t18.5 91t-18.5 91t-50 73.5t-73.5 50t-92 18.5q-49 0 -91 -18.5t-73.5 -50t-50 -73.5t-18.5 -91zM414 1124q0 -66 47 -113.5t112 -47.5 q66 0 114 48t48 113q0 68 -47 116t-115 48t-113.5 -49t-45.5 -115z" />
<glyph unicode="9" horiz-adv-x="1266" d="M49 999q0 111 40 210.5t109.5 173t166 117.5t208.5 44q115 0 211.5 -43t167 -116.5t109.5 -172t39 -211.5q0 -98 -35 -187t-88 -171l-422 -643h-319l335 512q-16 -4 -31.5 -5t-31.5 -1q-100 0 -184 41t-145.5 108.5t-95.5 156.5t-34 187zM322 1024q0 -55 18 -104.5 t51 -85t80 -56t104 -20.5q51 0 97.5 20.5t81 55t54 81t19.5 99.5t-18 102t-51 87t-80 60.5t-103 22.5q-55 0 -101 -21.5t-80 -57.5t-53 -83t-19 -100z" />
<glyph unicode=":" horiz-adv-x="693" d="M150 0v272h272v-272h-272zM150 864v273h272v-273h-272z" />
<glyph unicode=";" horiz-adv-x="693" d="M150 0v272h272v-288q0 -127 -73 -200t-197 -73v137q37 8 60.5 18.5t36.5 28t17 43t4 62.5h-120zM150 864v273h272v-273h-272z" />
<glyph unicode="&#x3c;" d="M94 422v192l1041 439v-236l-721 -299l721 -299v-235z" />
<glyph unicode="=" d="M98 166v246h1032v-246h-1032zM98 625v245h1032v-245h-1032z" />
<glyph unicode="&#x3e;" d="M94 -16v235l721 299l-721 299v236l1041 -439v-192z" />
<glyph unicode="?" horiz-adv-x="1266" d="M78 1073q12 152 82.5 269.5t218.5 170.5q82 33 170 33q100 0 184 -35.5t144.5 -98t94.5 -148.5t34 -185q0 -61 -16.5 -112.5t-44 -95.5t-65.5 -85t-81 -79q-33 -31 -57.5 -56.5t-41 -53.5t-24.5 -62.5t-8 -81.5v-70h-273v59q0 104 24.5 178t62.5 127.5t82 91.5t82 73.5 t62.5 74.5t24.5 92q0 90 -51 142.5t-141 52.5q-51 0 -85 -14.5t-55.5 -41t-33 -63.5t-17.5 -82h-272zM395 0v272h273v-272h-273z" />
<glyph unicode="@" horiz-adv-x="1635" d="M102 719q0 156 59.5 290t161 234t238.5 157.5t291 57.5q131 0 254 -43t218 -122t153.5 -191.5t58.5 -251.5q0 -172 -84 -311.5t-238 -216.5q-37 -18 -79.5 -32t-83.5 -14q-53 0 -85 32t-34 85h-4q-41 -55 -97.5 -86t-125.5 -31q-68 0 -123.5 28t-95.5 74t-62.5 105.5 t-22.5 122.5q0 94 31 186.5t87 166t138 118.5t185 45q74 0 131 -34.5t82 -106.5h4l31 113h170l-138 -525q-4 -18 -10 -39.5t-6 -40.5q0 -41 37 -40q39 0 72.5 23.5t61.5 59t47 75.5t30 71q23 72 22 139q0 117 -40 209t-110.5 156.5t-166.5 98.5t-209 34q-127 0 -233.5 -48 t-183.5 -130t-120 -191.5t-43 -232.5q0 -131 45 -239.5t125 -187.5t190.5 -123t239.5 -44q123 0 241 47t204 139h155q-100 -158 -260.5 -244t-347.5 -86q-158 0 -296 56.5t-241.5 156t-163 235.5t-59.5 296zM580 631q0 -76 41 -129t120 -53q59 0 107.5 31.5t83.5 79.5 t53.5 105.5t18.5 110.5q0 72 -41 123t-117 51q-59 0 -108.5 -29.5t-84.5 -75.5t-54 -103.5t-19 -110.5z" />
<glyph unicode="A" horiz-adv-x="1635" d="M14 0l631 1516h219l635 -1516h-309l-162 391h-543l-161 -391h-310zM580 655h348l-172 465h-4z" />
<glyph unicode="B" horiz-adv-x="1307" d="M143 0v1516h328q57 0 116.5 -3.5t115 -14.5t107.5 -34.5t99 -64.5q59 -51 94 -128t35 -155q0 -193 -170 -289q260 -94 260 -376q0 -111 -48 -205t-140 -156q-82 -55 -187.5 -72.5t-203.5 -17.5h-406zM424 262h141q49 0 100.5 8.5t91.5 30t65.5 60t25.5 100.5 q0 57 -24.5 96t-64.5 62.5t-89 34t-99 10.5h-147v-402zM424 926h106q41 0 82 7t73 25.5t52.5 50t20.5 81.5q0 47 -18.5 78.5t-49.5 50t-69.5 26.5t-79.5 8h-117v-327z" />
<glyph unicode="C" horiz-adv-x="1717" d="M70 764q0 160 62.5 302t169 248.5t249.5 169t303 62.5q117 0 225.5 -32.5t201.5 -92t167 -145.5t121 -193h-320q-80 94 -179 147.5t-226 53.5q-104 0 -194.5 -44t-157 -117.5t-104.5 -168t-38 -194.5q0 -102 39 -197.5t107.5 -169.5t161 -118t196.5 -44q123 0 212 51.5 t169 139.5h326q-43 -102 -117 -186t-167 -143.5t-199.5 -91.5t-217.5 -32q-164 0 -307 63.5t-250.5 172t-170 253t-62.5 306.5z" />
<glyph unicode="D" horiz-adv-x="1553" d="M129 0v1516h344q80 0 163 -7.5t165 -27t157.5 -53t137.5 -89.5q61 -53 107 -121.5t78 -144.5t48.5 -157.5t16.5 -161.5q0 -96 -25 -193.5t-71 -183.5t-113.5 -159t-153.5 -120q-55 -31 -117.5 -49t-128 -29.5t-131 -15.5t-127.5 -4h-350zM410 262h59q102 0 189 11.5 t180 62.5q55 31 97 77t71.5 101t44 116.5t14.5 123.5q0 104 -42 203.5t-120 168.5q-53 47 -111.5 73t-121 38t-128 14t-132.5 2v-991z" />
<glyph unicode="E" horiz-adv-x="1184" d="M125 0v1516h815v-263h-534v-370h512v-262h-512v-359h534v-262h-815z" />
<glyph unicode="F" horiz-adv-x="1103" d="M125 0v1516h772v-263h-491v-370h468v-262h-468v-621h-281z" />
<glyph unicode="G" horiz-adv-x="1840" d="M55 758q0 166 64.5 309t175.5 249.5t257 168t310 61.5q113 0 226.5 -33.5t214 -95t178.5 -149.5t116 -197h-335q-66 102 -175.5 157.5t-230.5 55.5q-111 0 -205 -42t-164.5 -113.5t-110.5 -168t-40 -204.5q0 -53 11 -105.5t32 -99.5q66 -154 196 -237t295 -83 q145 0 264 75t185 204h-635v262h989v-33q0 -162 -65.5 -302t-176 -244.5t-256 -164t-305.5 -59.5q-166 0 -313 60.5t-259 166t-177.5 250t-65.5 312.5z" />
<glyph unicode="H" horiz-adv-x="1512" d="M145 0v1516h281v-617h543v617h280v-1516h-280v637h-543v-637h-281z" />
<glyph unicode="I" horiz-adv-x="693" d="M147 0v1516h281v-1516h-281z" />
<glyph unicode="J" horiz-adv-x="1103" d="M4 356h283q12 -53 42.5 -89t90.5 -36q39 0 65.5 15.5t42 41t22.5 57.5t7 67v1104h281v-1086q0 -70 -13.5 -134.5t-42 -119.5t-74.5 -100t-114 -72q-82 -35 -170 -35q-90 0 -162 29t-124 80t-86 121.5t-48 156.5z" />
<glyph unicode="K" horiz-adv-x="1389" d="M182 0v1516h281v-656h4l473 656h330l-572 -746l572 -770h-330l-473 666h-4v-666h-281z" />
<glyph unicode="L" horiz-adv-x="1021" d="M147 0v1516h281v-1254h463v-262h-744z" />
<glyph unicode="M" horiz-adv-x="1963" d="M129 0v1516h389l404 -1147h4l399 1147h389v-1516h-280v1137h-7l-387 -1137h-237l-389 1137h-4v-1137h-281z" />
<glyph unicode="N" horiz-adv-x="1635" d="M143 0v1516h320l627 -1102h4v1102h280v-1516h-313l-633 1102h-4v-1102h-281z" />
<glyph unicode="O" horiz-adv-x="1840" d="M68 754q0 166 62.5 310t170 251.5t251.5 169t308 61.5t308.5 -61.5t252 -169t170 -251.5t62.5 -310q0 -164 -62.5 -307.5t-171 -249t-253 -167t-306.5 -61.5q-164 0 -307 61.5t-251.5 167t-171 249t-62.5 307.5zM348 756q0 -106 40 -201.5t108.5 -167.5t162 -114 t201.5 -42q106 0 200.5 42t163 114t108.5 167t40 202q0 106 -39 202.5t-107.5 168t-162.5 114.5t-203 43t-203 -43t-162.5 -114.5t-107.5 -168t-39 -202.5z" />
<glyph unicode="P" horiz-adv-x="1266" d="M147 0v1516h400q61 0 117.5 -3.5t108.5 -14.5t101.5 -35.5t98.5 -67.5q78 -68 110.5 -157t32.5 -191t-32.5 -191.5t-110.5 -157.5q-49 -43 -98.5 -67.5t-101.5 -35.5t-108.5 -14t-117.5 -3h-119v-578h-281zM428 840h90q55 0 111.5 6t102.5 27.5t75 62.5t29 111t-28 110.5 t-72 62t-98 27.5t-110 6h-100v-413z" />
<glyph unicode="Q" horiz-adv-x="1840" d="M66 754q0 166 62 310t170 251.5t252 169t308 61.5q162 0 306.5 -61.5t252 -167t171 -248.5t63.5 -305q0 -145 -40 -258t-126 -225q53 -35 99 -42.5t104 -7.5v-262h-39q-106 0 -190.5 33t-170.5 92q-96 -61 -205.5 -93t-224.5 -32q-164 0 -307 61.5t-252 167t-171 249 t-62 307.5zM346 744q0 -7 4 -17q53 12 103.5 15t103.5 3q92 0 188.5 -23.5t189.5 -64.5t176 -97t149 -120h4q29 39 49 74t32.5 72t18.5 78t6 92q0 106 -39 202.5t-107.5 169t-161.5 114.5t-204 42q-106 0 -199.5 -42t-163 -113.5t-109.5 -166t-40 -200.5v-18zM434 465 q68 -109 181.5 -171.5t242.5 -62.5q59 0 106.5 11.5t100.5 33.5q-115 86 -240 146.5t-270 60.5q-31 0 -61.5 -4t-59.5 -14z" />
<glyph unicode="R" horiz-adv-x="1307" d="M131 0v1516h465q100 0 194.5 -18.5t174.5 -84.5q86 -68 132 -163t46 -203q0 -98 -38 -196.5t-108 -166.5q-59 -55 -116.5 -80.5t-135.5 -44.5l412 -559h-340l-401 580h-4v-580h-281zM412 791h180q55 0 104 14t86 43t58.5 73t21.5 103q0 57 -22.5 101t-59.5 72t-86 42 t-102 14h-180v-462z" />
<glyph unicode="S" horiz-adv-x="1184" d="M25 434h294q8 -86 58.5 -144.5t142.5 -58.5q41 0 79 13.5t66.5 39t46 60.5t17.5 78q0 63 -26.5 104t-67.5 69t-93.5 46t-101.5 37q-35 14 -68.5 27.5t-68.5 29.5q-117 59 -170 153.5t-53 225.5q0 94 35 173t94 136.5t141 90t174 32.5t172 -32.5t139.5 -91t96.5 -137.5 t41 -171h-287q-6 78 -48 124t-122 46q-66 0 -111 -43t-45 -111q0 -55 24 -88.5t60.5 -56t80.5 -37t87 -28.5q86 -29 159 -68t126 -94.5t83 -130t30 -174.5q0 -109 -37 -197t-102.5 -152.5t-155.5 -99.5t-197 -35q-100 0 -188 35t-154.5 97.5t-106.5 147.5t-44 185z" />
<glyph unicode="T" horiz-adv-x="980" d="M12 1253v263h844v-263h-283v-1253h-280v1253h-281z" />
<glyph unicode="U" horiz-adv-x="1430" d="M113 553v963h280v-963q0 -66 12.5 -124t42 -102t80 -70t127.5 -26q76 0 127.5 26t81 70t42 102t12.5 124v963h280v-963q0 -92 -17.5 -186.5t-70.5 -171.5q-78 -111 -200 -168.5t-253 -57.5q-129 0 -250.5 56.5t-199.5 160.5q-57 76 -75.5 175.5t-18.5 191.5z" />
<glyph unicode="V" horiz-adv-x="1553" d="M16 1516h295l406 -1154h4l407 1154h295l-587 -1516h-230z" />
<glyph unicode="W" horiz-adv-x="1963" d="M14 1516h287l262 -1059h4l260 1059h205l254 -1059h4l264 1059h287l-440 -1516h-223l-246 1001h-4l-250 -1001h-221z" />
<glyph unicode="X" horiz-adv-x="1512" d="M8 0l522 756l-522 760h334l354 -529l365 529h323l-524 -760l524 -756h-323l-365 524l-354 -524h-334z" />
<glyph unicode="Y" horiz-adv-x="1389" d="M-4 1516h307l330 -697l332 697h309l-500 -957v-559h-280v559z" />
<glyph unicode="Z" horiz-adv-x="1144" d="M39 0v229l579 1024h-548v263h876v-244l-575 -1010h614v-262h-946z" />
<glyph unicode="[" horiz-adv-x="775" d="M135 369v551q0 242 107.5 399.5t339.5 224.5v-299q-27 -12 -50.5 -26.5t-42.5 -36.5q-25 -31 -40 -71t-22 -83t-9 -86t-2 -80v-543q0 -53 5 -105t22.5 -97t50 -81t88.5 -59v-299q-129 31 -215 97.5t-137.5 159t-73 203t-21.5 231.5z" />
<glyph unicode="\" horiz-adv-x="1430" d="M197 1516h276l641 -1721h-274z" />
<glyph unicode="]" horiz-adv-x="775" d="M74 -20q27 10 50 24t42 37q25 31 40 71t22.5 84t9.5 87t2 79v541q0 53 -5.5 105.5t-22.5 97.5t-50 81t-88 58v299q129 -31 215 -97.5t137 -158.5t72.5 -203.5t21.5 -230.5v-551q0 -242 -107.5 -399.5t-338.5 -225.5v302z" />
<glyph unicode="^" d="M150 768l356 748h217l356 -748h-245l-220 508l-221 -508h-243z" />
<glyph unicode="_" horiz-adv-x="1144" d="M0 -154h1024v-102h-1024v102z" />
<glyph unicode="`" horiz-adv-x="980" d="M102 1473l117 208l455 -276l-109 -188z" />
<glyph unicode="a" horiz-adv-x="1471" d="M55 575q0 123 42 231.5t117 190.5t179.5 130.5t231.5 48.5q94 0 180 -36t156 -100q10 -10 21 -22t19 -25h5v144h249v-1137h-249v141q-35 -41 -81 -73.5t-99.5 -55t-110 -36t-107.5 -13.5q-129 0 -231.5 50t-174 134t-109.5 195.5t-38 232.5zM328 563q0 -72 25.5 -135 t70.5 -111.5t106.5 -76t135.5 -27.5q76 0 137 28.5t104 78t66.5 114t23.5 137.5q0 74 -23.5 138.5t-66.5 112.5t-104.5 76t-136.5 28q-76 0 -138.5 -30t-106.5 -79t-68.5 -114.5t-24.5 -139.5z" />
<glyph unicode="b" horiz-adv-x="1471" d="M96 0v1516h273v-482q70 70 163 106t191 36q123 0 228.5 -49.5t181 -132.5t118.5 -192.5t43 -228.5q0 -63 -13 -125.5t-36 -121.5q-66 -170 -198 -266.5t-318 -96.5q-125 0 -213 41t-170 133v-137h-250zM352 584q0 -76 23.5 -143.5t68.5 -118t108.5 -80t141.5 -29.5 q76 0 136.5 28.5t103.5 78t65.5 114t22.5 137.5q0 72 -23.5 136.5t-67.5 112.5t-105.5 77t-135.5 29q-72 0 -133 -28t-106 -74t-72 -108t-27 -132z" />
<glyph unicode="c" horiz-adv-x="1430" d="M76 573q0 125 47 235t129 191.5t191.5 129t234.5 47.5q100 0 190 -30t164 -84t130.5 -131t86.5 -171h-307q-45 80 -106.5 123t-157.5 43q-76 0 -137.5 -29t-104.5 -77t-65.5 -112.5t-22.5 -138.5t24.5 -138t69.5 -113.5t108.5 -77t139.5 -27.5q84 0 146.5 44t105.5 114 h307q-68 -188 -217 -298t-352 -110q-127 0 -236.5 48t-191.5 131t-129 194.5t-47 236.5z" />
<glyph unicode="d" horiz-adv-x="1471" d="M70 567q0 184 93 334t263 225q53 23 108.5 36.5t114.5 13.5q104 0 188.5 -31t155.5 -109v480h273v-1516h-250v139h-4q-57 -92 -157.5 -134t-205.5 -42q-125 0 -230.5 49t-183 132t-121.5 192.5t-44 230.5zM342 578q0 -72 24.5 -137.5t68.5 -116t106.5 -81t136.5 -30.5 q72 0 133 29.5t106.5 79t71 114t25.5 133.5q0 70 -25.5 134.5t-71 113.5t-106.5 79t-133 30q-70 0 -130.5 -29t-106.5 -78t-72.5 -111t-26.5 -130z" />
<glyph unicode="e" horiz-adv-x="1430" d="M63 565q0 127 45.5 238.5t125 194.5t189 130.5t239.5 47.5q125 0 232 -46.5t186 -126t124 -188t45 -231.5q0 -66 -16 -138h-883q4 -23 14.5 -43t22.5 -38q47 -72 119 -112t158 -40q84 0 152.5 35t109.5 110h286q-29 -86 -83 -158.5t-127.5 -124.5t-160.5 -82t-177 -30 q-127 0 -237 46t-190.5 128t-127 191.5t-46.5 236.5zM342 666h629q-20 123 -101.5 191.5t-205.5 68.5q-125 0 -209 -68.5t-113 -191.5z" />
<glyph unicode="f" horiz-adv-x="693" d="M31 895v242h96q8 92 34.5 172t98.5 145q47 43 109.5 67.5t128.5 24.5h75v-268q-43 0 -74.5 -4t-52 -18.5t-33 -42t-14.5 -76.5h160v-242h-160v-895h-272v895h-96z" />
<glyph unicode="g" horiz-adv-x="1471" d="M66 580q0 119 45 227t122.5 190t183 130.5t228.5 48.5q111 0 206 -43t157 -136h4v140h264v-928q0 -102 -20.5 -196.5t-64.5 -174.5t-112.5 -143.5t-167.5 -104.5q-123 -53 -256 -53q-94 0 -182 25.5t-162.5 74t-133 118t-93.5 159.5h311q57 -66 126 -96.5t155 -30.5 q76 0 138.5 27.5t107.5 76t71.5 113t30.5 137.5l-4 4q-66 -94 -162 -138t-211 -44q-117 0 -225 51q-170 78 -263 230t-93 336zM338 578q0 -74 24.5 -139.5t69.5 -116t107.5 -80t138.5 -29.5q74 0 134 30.5t103 82t66 118t23 136.5q0 68 -27 131t-72 110t-105.5 76t-129.5 29 q-72 0 -133.5 -29t-105.5 -76t-68.5 -110t-24.5 -133z" />
<glyph unicode="h" d="M111 0v1516h272v-459q125 119 295 119q98 0 194.5 -48.5t155.5 -126.5q55 -72 72.5 -161.5t17.5 -180.5v-659h-272v582q0 61 -7.5 122.5t-32 110.5t-70.5 80t-124 31q-76 0 -121 -32t-69.5 -83t-31.5 -112.5t-7 -120.5v-578h-272z" />
<glyph unicode="i" horiz-adv-x="611" d="M109 0v1137h272v-1137h-272zM109 1266v250h272v-250h-272z" />
<glyph unicode="j" horiz-adv-x="652" d="M33 -113q43 4 65.5 16.5t33.5 33t13 50t2 68.5v1082h273v-1088q0 -90 -25.5 -167t-75 -135t-121 -92t-165.5 -34v266zM147 1266v250h273v-250h-273z" />
<glyph unicode="k" horiz-adv-x="1307" d="M164 0v1516h272v-914h4l363 535h313l-409 -557l462 -580h-344l-385 532h-4v-532h-272z" />
<glyph unicode="l" horiz-adv-x="611" d="M111 0v1516h272v-1516h-272z" />
<glyph unicode="m" horiz-adv-x="2045" d="M111 0v1137h249v-97h5q47 76 130 106t167 30q102 0 187 -46.5t140 -132.5q68 98 160 138.5t207 40.5q111 0 210 -42t165 -135q51 -72 68.5 -160.5t17.5 -174.5v-664h-273v631q0 55 -9 107.5t-32.5 94t-65.5 67.5t-108 26q-57 0 -108.5 -29t-79.5 -78q-29 -47 -35 -112.5 t-6 -118.5v-588h-273v631q0 55 -11 108.5t-37.5 95.5t-70.5 66.5t-108 24.5q-78 0 -121 -35t-64.5 -87t-26.5 -115.5t-5 -121.5v-567h-272z" />
<glyph unicode="n" d="M111 0v1137h251v-99q68 66 140.5 102t171.5 36q47 0 95 -11.5t93 -32t84 -49t70 -65.5q66 -80 85 -183.5t19 -203.5v-631h-272v561q0 59 -7 124t-32 118t-70 88t-121 35q-53 0 -104 -28t-82 -73q-18 -27 -28.5 -62.5t-14.5 -74.5t-5 -78t-1 -69v-541h-272z" />
<glyph unicode="o" horiz-adv-x="1430" d="M51 567q0 125 47 235.5t130 193.5t192.5 131.5t236.5 48.5q125 0 236 -47.5t191.5 -129t128 -192.5t47.5 -236q0 -129 -46.5 -240.5t-126 -192.5t-190.5 -128t-240 -47q-125 0 -234.5 48t-192.5 130t-131 191.5t-48 234.5zM324 567q0 -72 24.5 -136t68.5 -112.5 t105.5 -77t134.5 -28.5q72 0 132.5 28.5t104.5 78t68.5 113t24.5 132.5q0 68 -24.5 133.5t-68.5 115.5t-104.5 81t-132.5 31t-133 -30t-106 -80t-69.5 -114.5t-24.5 -134.5z" />
<glyph unicode="p" horiz-adv-x="1471" d="M96 -379v1516h250v-133h4q72 90 164 131t205 41q125 0 229.5 -48.5t180 -131.5t117.5 -192.5t42 -230.5t-42 -231.5t-117.5 -194.5t-180 -134t-229.5 -50q-57 0 -104.5 8.5t-88.5 25.5t-79.5 45t-77.5 67v-488h-273zM352 569q0 -106 50.5 -192t148.5 -131q66 -33 133 -33 q72 0 133.5 29.5t105.5 79t68.5 114t24.5 133.5q0 68 -24.5 132.5t-67.5 114.5t-103.5 80t-132.5 30q-74 0 -135 -29t-106.5 -78t-70 -113.5t-24.5 -136.5z" />
<glyph unicode="q" horiz-adv-x="1471" d="M63 580q0 119 45.5 226t123 189t182 131.5t225.5 49.5q117 0 207 -42t155 -141h5v144h249v-1516h-272v488q-68 -74 -158 -110t-188 -36q-127 0 -231.5 51.5t-181.5 136.5t-119 196.5t-42 232.5zM336 573q0 -74 23.5 -139t67.5 -114.5t105.5 -78t137.5 -28.5 q72 0 132 29.5t103 79t67.5 113t24.5 132.5q0 70 -24.5 134.5t-67.5 114.5t-103.5 80t-133.5 30q-72 0 -133.5 -29t-105.5 -78t-68.5 -112.5t-24.5 -133.5z" />
<glyph unicode="r" horiz-adv-x="775" d="M129 0v1137h250v-101h4q29 41 54.5 69t56 43t67.5 21.5t88 6.5v-265q-135 -4 -191.5 -75.5t-56.5 -196.5v-639h-272z" />
<glyph unicode="s" horiz-adv-x="1021" d="M39 358h278q14 -61 46 -103t104 -42q49 0 86 30.5t37 84.5q0 35 -17 59q-14 18 -44.5 35.5t-66.5 31t-72 24.5t-56 20q-115 41 -184.5 119.5t-69.5 205.5q0 78 31.5 142.5t84 111.5t122 73t143.5 26t140.5 -27t116.5 -73t79.5 -110.5t33.5 -138.5h-266q-10 45 -35.5 72 t-72.5 27q-43 0 -74 -28t-31 -71q0 -45 30 -62t64 -32q25 -10 49.5 -17t49.5 -16q66 -20 124 -46.5t101 -64.5t67.5 -93.5t24.5 -135.5q0 -84 -30.5 -156.5t-84 -125.5t-126 -84t-156.5 -31q-96 0 -188.5 37t-151.5 113q-45 57 -62.5 115t-23.5 130z" />
<glyph unicode="t" horiz-adv-x="734" d="M43 895v242h133v379h273v-379h163v-242h-163v-895h-273v895h-133z" />
<glyph unicode="u" d="M102 535v602h273v-580q0 -61 8 -122.5t33.5 -111t72 -80t123.5 -30.5q70 0 115 31.5t70.5 82t35 111t9.5 117.5v582h272v-1137h-250v115h-4q-57 -78 -125.5 -115t-167.5 -37q-111 0 -214 44t-167 136q-59 86 -71.5 189t-12.5 203z" />
<glyph unicode="v" horiz-adv-x="1266" d="M6 1137h295l274 -754h7l258 754h299l-461 -1137h-213z" />
<glyph unicode="w" horiz-adv-x="1758" d="M23 1137h290l207 -695h4l187 695h217l184 -695h4l209 695h291l-416 -1137h-168l-213 737h-4l-215 -737h-168z" />
<glyph unicode="x" horiz-adv-x="1266" d="M6 0l404 586l-353 551h305l209 -342l207 342h305l-352 -551l408 -586h-324l-244 389l-241 -389h-324z" />
<glyph unicode="y" horiz-adv-x="1307" d="M16 1137h312l258 -729l274 729h309l-653 -1516h-293l209 485z" />
<glyph unicode="z" horiz-adv-x="1062" d="M41 0v250l504 637h-447v250h772v-250l-503 -637h538v-250h-864z" />
<glyph unicode="{" horiz-adv-x="816" d="M-6 477v203q31 0 65.5 5t64.5 19.5t49.5 39t19.5 61.5v442q0 92 49 159t131 101q23 10 46 16.5t46 6.5h184v-184h-92q-29 0 -45 -12.5t-24.5 -33t-11.5 -44t-3 -44.5v-434q0 -55 -22.5 -92t-59.5 -59.5t-83 -32.5t-91 -12v-7q55 -4 101.5 -13t81 -32.5t54 -64.5 t19.5 -105v-434q0 -23 3 -45t11.5 -42.5t24.5 -33t45 -12.5h92v-184h-184q-23 0 -46.5 6t-45.5 16q-82 35 -131 101.5t-49 158.5v443q0 41 -18.5 68.5t-47.5 44t-64.5 23.5t-68.5 7z" />
<glyph unicode="|" d="M477 -512v2048h273v-2048h-273z" />
<glyph unicode="}" horiz-adv-x="816" d="M47 -207h92q27 0 44.5 12.5t25.5 33t11 43t3 44.5v434q0 63 19.5 104.5t54.5 65t81 32.5t101 13v7q-47 2 -92 12t-82 32.5t-59.5 59.5t-22.5 92v434q0 20 -3 44t-11 44.5t-25.5 33t-44.5 12.5h-92v184h184q23 0 46.5 -6t46.5 -17q82 -35 131 -101.5t49 -158.5v-442 q0 -37 19.5 -61.5t49 -39t64.5 -19.5t65 -5v-203q-35 0 -69.5 -7t-63 -23.5t-47 -44t-18.5 -68.5v-443q0 -92 -49 -158.5t-131 -101.5q-23 -10 -46.5 -16t-46.5 -6h-184v184z" />
<glyph unicode="~" d="M137 524q43 78 103.5 130.5t156.5 52.5q57 0 116.5 -21.5t117 -48.5t110 -48.5t93.5 -21.5q31 0 57.5 13.5t49 35t41.5 47t36 48.5l74 -201q-25 -35 -51.5 -66.5t-57.5 -57.5t-67.5 -41t-84.5 -15q-61 0 -111 21.5t-101.5 48t-106.5 48t-125 21.5q-66 0 -106.5 -44 t-69.5 -97z" />
<glyph unicode="&#xa1;" horiz-adv-x="693" d="M152 -379v1129h272v-1129h-272zM152 877v260h272v-260h-272z" />
<glyph unicode="&#xa2;" horiz-adv-x="1266" d="M88 784q0 80 27.5 158t77 142.5t117 109.5t147.5 61v209h258v-209q70 -23 119 -48t102 -79q45 -47 78 -102t45 -119h-287q-29 47 -83 70.5t-107 23.5q-47 0 -88 -17t-71 -48t-46.5 -72t-16.5 -88q0 -96 64.5 -159.5t161.5 -63.5q57 0 95 21.5t79 60.5h299 q-27 -66 -58.5 -118t-72.5 -93t-93.5 -70.5t-119.5 -50.5v-223h-258v223q-82 16 -149.5 63.5t-117 113t-76 144t-26.5 160.5z" />
<glyph unicode="&#xa3;" horiz-adv-x="1266" d="M-4 637v258h115q-33 78 -33 164q0 100 40 188t107.5 154.5t156.5 105.5t187 39q145 0 261 -77.5t180 -206.5q16 -35 28.5 -74t12.5 -76h-277q-16 74 -70.5 125t-132.5 51q-51 0 -92 -19.5t-69.5 -53t-44 -77.5t-15.5 -94q0 -86 58 -149h426v-258h-224q16 -35 28.5 -62.5 t20 -54t11.5 -57.5t4 -70q0 -35 -5 -67.5t-18 -67.5h23q88 0 146.5 57.5t58.5 145.5q0 27 -6.5 52.5t-14.5 49.5h272q12 -25 16.5 -51.5t4.5 -52.5q0 -98 -41 -187q-61 -141 -181 -206.5t-270 -65.5h-581v258h284q39 72 39 148t-32.5 128t-83.5 103h-289z" />
<glyph unicode="&#xa4;" horiz-adv-x="1352" d="M20 248l170 170q-88 129 -88 280q0 78 24 152t69 137l-175 172l136 137l176 -174q129 88 284 88q76 0 149 -21.5t134 -64.5l174 170l133 -135l-170 -170q94 -129 94 -291q0 -156 -88 -280l170 -168l-135 -137l-166 166q-66 -47 -141.5 -71t-153.5 -24q-80 0 -154.5 24.5 t-139.5 70.5l-166 -164zM356 698q0 -53 20.5 -100t55.5 -83t83 -57.5t101 -21.5q55 0 102.5 21.5t82.5 57.5t55.5 84t20.5 101t-20.5 101.5t-55.5 84.5t-82 56.5t-103 20.5q-55 0 -102 -21.5t-82 -57.5t-55.5 -84.5t-20.5 -101.5z" />
<glyph unicode="&#xa5;" horiz-adv-x="1266" d="M-20 1516h280l315 -590l318 590h274l-282 -515h180v-215h-291l-63 -116v-68h336v-215h-336v-387h-273v387h-340v215h340v68l-65 116h-291v215h180z" />
<glyph unicode="&#xa6;" d="M477 -358v716h273v-716h-273zM477 666v716h273v-716h-273z" />
<glyph unicode="&#xa7;" horiz-adv-x="1266" d="M57 711q0 106 49.5 175.5t133.5 125.5q-29 47 -44.5 91t-15.5 101q0 86 35 150.5t92.5 107.5t131 63.5t151.5 20.5q193 0 298 -99t128 -286h-256q-25 135 -168 135q-27 0 -54.5 -6t-50 -19.5t-37 -35t-14.5 -53.5q0 -25 13.5 -44.5t33 -35t42 -27.5t40.5 -22l336 -172 q82 -41 133 -116t51 -169q0 -88 -50 -164t-117 -125q53 -53 77.5 -111.5t24.5 -134.5q0 -92 -37 -163.5t-97.5 -120.5t-140 -75t-165.5 -26q-98 0 -180.5 31t-143.5 87t-97 137t-40 180h256q0 -94 58.5 -139.5t148.5 -45.5q31 0 62.5 7.5t58 23.5t44 42t17.5 60 q0 31 -14.5 53.5t-36 40t-48 31t-49.5 25.5l-340 180q-94 51 -156.5 131t-62.5 191zM313 727q0 -23 11.5 -42t29 -34.5t38 -29t38.5 -21.5l318 -162q33 25 57 57.5t24 75.5q0 51 -38.5 80t-79.5 49l-316 160q-29 -20 -55.5 -58t-26.5 -75z" />
<glyph unicode="&#xa8;" horiz-adv-x="1144" d="M160 1288v273h274v-273h-274zM592 1288v273h272v-273h-272z" />
<glyph unicode="&#xa9;" horiz-adv-x="1635" d="M-25 758q0 162 61.5 305t168 248.5t250 167t305.5 61.5t304 -61.5t247.5 -168t167 -248.5t61.5 -304t-61.5 -304.5t-168 -249t-247.5 -168t-303 -61.5t-305.5 61.5t-250 167t-168 248t-61.5 306.5zM160 758q0 -125 46 -234.5t127 -192.5t189.5 -131t235.5 -48 q125 0 234.5 48t190.5 131t127 192.5t46 234.5t-46 234.5t-127 192.5t-190.5 131t-234.5 48q-127 0 -235.5 -48t-189.5 -130t-127 -192.5t-46 -235.5zM330 760q0 98 30.5 183t87 148.5t138.5 99.5t184 36q70 0 136.5 -21.5t120.5 -61.5t91 -97.5t45 -131.5h-184 q-27 80 -75 119t-134 39q-66 0 -114 -26.5t-79.5 -70.5t-47 -100.5t-15.5 -115.5q0 -61 14.5 -118.5t45 -100.5t78.5 -69t118 -26q86 0 135 37t74 121h184q-8 -74 -45 -131t-91 -97t-120.5 -61.5t-136.5 -21.5q-102 0 -184 36t-138.5 99.5t-87 148.5t-30.5 183z" />
<glyph unicode="&#xaa;" horiz-adv-x="857" d="M39 1225q0 63 22.5 121.5t63.5 103.5t97.5 70.5t121.5 25.5q43 0 87 -17.5t69 -55.5h4v53h180v-608h-180v51h-4q-27 -39 -69 -55.5t-87 -16.5q-68 0 -124 26.5t-96 71.5t-62.5 104.5t-22.5 125.5zM223 1219q0 -59 40 -103.5t102 -44.5q66 0 104.5 45t38.5 107 q0 63 -40 106t-103 43q-66 0 -104 -46t-38 -107z" />
<glyph unicode="&#xab;" horiz-adv-x="1062" d="M125 489v207l287 265v-252l-140 -117l140 -119v-252zM532 489v207l287 265v-252l-139 -117l139 -119v-252z" />
<glyph unicode="&#xac;" d="M98 625v245h1032v-649h-245v404h-787z" />
<glyph unicode="&#xad;" horiz-adv-x="980" d="M145 471v242h570v-242h-570z" />
<glyph unicode="&#xae;" horiz-adv-x="1635" d="M-25 758q0 162 61.5 305t168 248.5t250 167t305.5 61.5t304 -61.5t247.5 -168t167 -248.5t61.5 -304t-61.5 -304.5t-168 -249t-247.5 -168t-303 -61.5t-305.5 61.5t-250 167t-168 248t-61.5 306.5zM160 758q0 -125 46 -234.5t127 -192.5t189.5 -131t235.5 -48 q125 0 234.5 48t190.5 131t127 192.5t46 234.5t-46 234.5t-127 192.5t-190.5 131t-234.5 48q-127 0 -235.5 -48t-189.5 -130t-127 -192.5t-46 -235.5zM424 303v895h385q59 0 114.5 -12t98.5 -41t68.5 -75t25.5 -116q0 -84 -41 -140t-125 -77v-4q45 -12 74 -32.5t45 -48 t22.5 -63.5t8.5 -79q2 -45 4 -105.5t24 -101.5h-182q-20 31 -22 81t-4 85q-2 31 -5.5 58.5t-12.5 52t-27.5 43t-51.5 28.5q-10 4 -31.5 7.5t-31.5 3.5h-158v-359h-178zM602 805h172q74 0 117 29.5t43 113.5q0 6 -2 17.5t-6 17.5q-16 49 -57.5 59.5t-86.5 10.5h-180v-248z " />
<glyph unicode="&#xaf;" horiz-adv-x="980" d="M147 1307v227h568v-227h-568z" />
<glyph unicode="&#xb0;" horiz-adv-x="939" d="M117 1165q0 61 22.5 114.5t62.5 93.5t93 62.5t115 22.5q61 0 114.5 -22.5t93 -62.5t62 -93t22.5 -115q0 -61 -22.5 -114.5t-62 -93t-93 -62.5t-114.5 -23t-114.5 23t-93.5 62.5t-62.5 93t-22.5 114.5zM264 1165q0 -29 11.5 -56.5t32 -49t46 -33.5t56.5 -12t56.5 12 t45.5 33.5t31.5 49.5t11.5 56q0 29 -11.5 56.5t-31.5 49t-46 34t-56 12.5q-31 0 -56.5 -12.5t-46 -34t-32 -49t-11.5 -56.5z" />
<glyph unicode="&#xb1;" d="M98 0v246h1032v-246h-1032zM98 700v246h394v320h245v-320h393v-246h-393v-307h-245v307h-394z" />
<glyph unicode="&#xb2;" horiz-adv-x="808" d="M27 1468v19q0 66 25.5 121t68.5 96t100.5 63.5t120.5 22.5t120.5 -22.5t101.5 -62.5t69.5 -95.5t25.5 -120.5q0 -96 -54 -172t-124 -135l-164 -144h342v-176h-622v166l325 301q35 33 68 73t33 91q0 53 -34 87t-87 34q-37 0 -59.5 -14.5t-36 -38t-18.5 -53t-5 -58.5h-194 q-2 10 -2 18z" />
<glyph unicode="&#xb3;" horiz-adv-x="808" d="M16 1147h197q4 -55 41 -91t92 -36t92 37t37 92q0 47 -17.5 74.5t-46 41t-64.5 17.5t-75 4v176q23 0 46.5 1t44 8.5t33 23.5t12.5 47q0 72 -70 72q-33 0 -45 -22.5t-12 -51.5h-197q6 111 76.5 180.5t181.5 69.5q51 0 98 -19.5t84 -53.5t58.5 -79t21.5 -98q0 -47 -16.5 -86 t-52.5 -70q70 -31 103.5 -96t33.5 -137q0 -70 -27 -126t-73 -96t-106 -62.5t-126 -22.5q-68 0 -125 22.5t-100 62.5t-70 95t-29 123z" />
<glyph unicode="&#xb4;" horiz-adv-x="980" d="M182 1405l455 276l117 -208l-463 -256z" />
<glyph unicode="&#xb5;" horiz-adv-x="1410" d="M147 -369v1506h273v-537q0 -29 2 -65.5t7 -75.5t13.5 -75t22.5 -60q29 -53 68.5 -82t99.5 -29q80 0 127 38t71.5 98.5t31.5 132t7 139.5v516h273v-1137h-258v98h-6q-78 -135 -246 -135q-59 0 -115.5 19.5t-97.5 66.5v-418h-273z" />
<glyph unicode="&#xb6;" d="M-14 1114q0 121 43 199t115.5 123t165.5 62.5t196 17.5h737v-211h-162v-1516h-231v1516h-199v-1516h-231v938q-92 0 -171 22.5t-137.5 70.5t-92 121t-33.5 173z" />
<glyph unicode="&#xb7;" horiz-adv-x="693" d="M150 383v272h272v-272h-272z" />
<glyph unicode="&#xb8;" horiz-adv-x="816" d="M201 -336h108q6 -35 34 -55.5t63 -20.5q43 0 68.5 29t25.5 70t-28 71.5t-69 30.5q-29 0 -51 -10t-37 -35l-100 39l100 229l103 -14l-49 -111q12 2 25.5 3t25.5 1q88 0 139 -59t51 -145q0 -92 -56 -146.5t-148 -54.5q-35 0 -72 13.5t-66.5 37t-48 56t-18.5 71.5z" />
<glyph unicode="&#xb9;" horiz-adv-x="627" d="M51 1595v177h309v-910h-196v733h-113z" />
<glyph unicode="&#xba;" horiz-adv-x="857" d="M47 1221q0 68 25.5 126t68.5 103t102.5 70.5t127.5 25.5t126 -25.5t102 -69.5t68.5 -102.5t24.5 -125.5q0 -68 -24.5 -127.5t-67.5 -103.5t-101.5 -69.5t-127.5 -25.5q-66 0 -125.5 25.5t-103.5 69.5t-69.5 103.5t-25.5 125.5zM231 1221q0 -59 39 -104.5t101 -45.5 q59 0 98 44t39 104q0 57 -38 105t-99 48q-63 0 -101.5 -46t-38.5 -105z" />
<glyph unicode="&#xbb;" horiz-adv-x="1062" d="M125 221v252l139 119l-139 117v252l287 -265v-207zM532 221v252l140 119l-140 117v252l287 -265v-207z" />
<glyph unicode="&#xbc;" horiz-adv-x="1565" d="M51 1339v177h309v-910h-196v733h-113zM225 0l627 1516h203l-629 -1516h-201zM680 133v143l434 633h156v-608h100v-168h-100v-133h-185v133h-405zM883 301h202v326h-4z" />
<glyph unicode="&#xbd;" horiz-adv-x="1668" d="M51 1339v177h309v-910h-196v733h-113zM225 0l627 1516h203l-629 -1516h-201zM850 606v19q0 66 25.5 121t68.5 96t100.5 63.5t120.5 22.5t120.5 -22.5t102 -62.5t70 -95.5t25.5 -120.5q0 -96 -54.5 -172t-123.5 -136l-164 -143h342v-176h-623v166l326 301q35 33 67.5 73 t32.5 91q0 53 -33.5 87t-87.5 34q-37 0 -59.5 -14.5t-35.5 -38t-18 -53.5t-5 -58h-195q-2 10 -2 18z" />
<glyph unicode="&#xbe;" horiz-adv-x="1840" d="M37 891h196q4 -55 41 -91t93 -36q55 0 92 37t37 92q0 47 -17.5 74.5t-46.5 41t-64.5 17.5t-74.5 4v176q23 0 46 1t43.5 8.5t33 23.5t12.5 47q0 72 -70 72q-33 0 -45 -22.5t-12 -51.5h-197q6 111 77 180.5t181 69.5q51 0 98.5 -19.5t84.5 -53.5t58.5 -79t21.5 -98 q0 -47 -16.5 -86t-53.5 -70q70 -31 103.5 -96t33.5 -137q0 -70 -26.5 -126t-72.5 -96t-106.5 -62.5t-126.5 -22.5q-68 0 -125 22.5t-100 62.5t-69.5 95t-28.5 123zM500 0l626 1516h203l-629 -1516h-200zM954 133v143l435 633h155v-608h101v-168h-101v-133h-184v133h-406z M1157 301h203v326h-4z" />
<glyph unicode="&#xbf;" horiz-adv-x="1266" d="M139 57q0 61 16.5 112.5t44 95.5t65.5 84t81 81q33 31 57.5 56.5t41 53t24.5 62.5t8 82v70h273v-60q0 -104 -25 -178t-62.5 -127t-81.5 -91t-82 -74t-62.5 -74.5t-24.5 -92.5q0 -90 51 -142t141 -52q102 0 140 55t51 145h272q-12 -152 -83 -269.5t-218 -170.5 q-82 -33 -170 -33q-100 0 -184 36t-144.5 98.5t-94.5 148.5t-34 184zM477 864v273h273v-273h-273z" />
<glyph unicode="&#xc0;" horiz-adv-x="1635" d="M14 0l631 1516h219l635 -1516h-309l-162 391h-543l-161 -391h-310zM580 655h348l-172 465h-4zM430 1883l117 208l455 -276l-109 -188z" />
<glyph unicode="&#xc1;" horiz-adv-x="1635" d="M14 0l631 1516h219l635 -1516h-309l-162 391h-543l-161 -391h-310zM580 655h348l-172 465h-4zM510 1815l455 276l117 -208l-463 -256z" />
<glyph unicode="&#xc2;" horiz-adv-x="1635" d="M14 0l631 1516h219l635 -1516h-309l-162 391h-543l-161 -391h-310zM580 655h348l-172 465h-4zM350 1650l304 283h215l299 -283h-297l-109 131l-115 -131h-297z" />
<glyph unicode="&#xc3;" horiz-adv-x="1635" d="M14 0l631 1516h219l635 -1516h-309l-162 391h-543l-161 -391h-310zM580 655h348l-172 465h-4zM356 1831q51 39 111.5 63.5t126.5 24.5q39 0 76.5 -9.5t74.5 -20.5t74 -20.5t76 -9.5q84 0 155 48l111 -160q-53 -43 -107.5 -69.5t-125.5 -26.5q-39 0 -76 8t-73 19t-73 19.5 t-75 8.5q-47 0 -85 -10.5t-79 -30.5z" />
<glyph unicode="&#xc4;" horiz-adv-x="1635" d="M14 0l631 1516h219l635 -1516h-309l-162 391h-543l-161 -391h-310zM580 655h348l-172 465h-4zM406 1650v273h274v-273h-274zM838 1650v273h272v-273h-272z" />
<glyph unicode="&#xc5;" horiz-adv-x="1635" d="M14 0l631 1516h219l635 -1516h-309l-162 391h-543l-161 -391h-310zM580 655h348l-172 465h-4zM539 1764q0 45 17 84.5t46 70.5t69 48.5t87 17.5q45 0 86 -17.5t70.5 -47.5t47 -70.5t17.5 -85.5t-17.5 -85t-48 -70t-70.5 -47.5t-85 -17.5t-85 17.5t-70 47.5t-47 70t-17 85 zM676 1764q0 -35 23.5 -58.5t58.5 -23.5t59.5 23.5t24.5 58.5t-25 59t-59 24q-35 0 -58.5 -24t-23.5 -59z" />
<glyph unicode="&#xc6;" horiz-adv-x="1963" d="M-10 0l1001 1516h697v-263h-451v-370h428v-262h-428v-359h451v-262h-732v391h-401l-236 -391h-329zM721 653h235v400h-4z" />
<glyph unicode="&#xc7;" horiz-adv-x="1717" d="M70 764q0 160 62.5 302t169 248.5t249.5 169t303 62.5q117 0 225.5 -32.5t201.5 -92t167 -145.5t121 -193h-320q-80 94 -179 147.5t-226 53.5q-104 0 -194.5 -44t-157 -117.5t-104.5 -168t-38 -194.5q0 -102 39 -197.5t107.5 -169.5t161 -118t196.5 -44q123 0 212 51.5 t169 139.5h326q-43 -102 -117 -186t-167 -143.5t-199.5 -91.5t-217.5 -32h-24l-37 -82q12 2 25.5 3t25.5 1q88 0 139 -59t51 -145q0 -92 -56 -146.5t-148 -54.5q-35 0 -72 13.5t-66.5 37t-48 56t-18.5 71.5h108q6 -35 34 -55.5t63 -20.5q43 0 68.5 29t25.5 70t-28 71.5 t-68 30.5q-29 0 -51.5 -10t-37.5 -35l-100 39l86 197q-141 25 -262 95t-210 174.5t-139 237t-50 277.5z" />
<glyph unicode="&#xc8;" horiz-adv-x="1184" d="M125 0v1516h815v-263h-534v-370h512v-262h-512v-359h534v-262h-815zM204 1883l117 208l455 -276l-109 -188z" />
<glyph unicode="&#xc9;" horiz-adv-x="1184" d="M125 0v1516h815v-263h-534v-370h512v-262h-512v-359h534v-262h-815zM284 1815l455 276l117 -208l-463 -256z" />
<glyph unicode="&#xca;" horiz-adv-x="1184" d="M125 0v1516h815v-263h-534v-370h512v-262h-512v-359h534v-262h-815zM127 1650l304 283h215l299 -283h-297l-109 131l-115 -131h-297z" />
<glyph unicode="&#xcb;" horiz-adv-x="1184" d="M125 0v1516h815v-263h-534v-370h512v-262h-512v-359h534v-262h-815zM180 1650v273h274v-273h-274zM612 1650v273h272v-273h-272z" />
<glyph unicode="&#xcc;" horiz-adv-x="693" d="M147 0v1516h281v-1516h-281zM-91 1883l117 208l455 -276l-109 -188z" />
<glyph unicode="&#xcd;" horiz-adv-x="693" d="M147 0v1516h281v-1516h-281zM92 1815l455 276l117 -208l-463 -256z" />
<glyph unicode="&#xce;" horiz-adv-x="693" d="M147 0v1516h281v-1516h-281zM-119 1650l304 283h215l299 -283h-297l-109 131l-115 -131h-297z" />
<glyph unicode="&#xcf;" horiz-adv-x="693" d="M147 0v1516h281v-1516h-281zM-63 1650v273h274v-273h-274zM369 1650v273h272v-273h-272z" />
<glyph unicode="&#xd0;" horiz-adv-x="1623" d="M51 637v262h148v617h344q80 0 162.5 -7.5t164.5 -27t158 -53t137 -89.5q61 -53 107.5 -121.5t78 -144.5t48 -157.5t16.5 -161.5q0 -96 -24.5 -193.5t-70.5 -183.5t-113.5 -159t-153.5 -120q-55 -31 -118 -49t-128.5 -29.5t-131 -15.5t-126.5 -4h-350v637h-148zM479 262 h60q102 0 189 11.5t179 62.5q55 31 97.5 77t72 101t44 116.5t14.5 123.5q0 104 -42 203.5t-120 168.5q-53 47 -111.5 73t-121 38t-128 14t-133.5 2v-354h281v-262h-281v-375z" />
<glyph unicode="&#xd1;" horiz-adv-x="1635" d="M143 0v1516h320l627 -1102h4v1102h280v-1516h-313l-633 1102h-4v-1102h-281zM356 1831q51 39 111.5 63.5t126.5 24.5q39 0 76.5 -9.5t74.5 -20.5t74 -20.5t76 -9.5q84 0 155 48l111 -160q-53 -43 -107.5 -69.5t-125.5 -26.5q-39 0 -76 8t-73 19t-73 19.5t-75 8.5 q-47 0 -85 -10.5t-79 -30.5z" />
<glyph unicode="&#xd2;" horiz-adv-x="1840" d="M68 754q0 166 62.5 310t170 251.5t251.5 169t308 61.5t308.5 -61.5t252 -169t170 -251.5t62.5 -310q0 -164 -62.5 -307.5t-171 -249t-253 -167t-306.5 -61.5q-164 0 -307 61.5t-251.5 167t-171 249t-62.5 307.5zM348 756q0 -106 40 -201.5t108.5 -167.5t162 -114 t201.5 -42q106 0 200.5 42t163 114t108.5 167t40 202q0 106 -39 202.5t-107.5 168t-162.5 114.5t-203 43t-203 -43t-162.5 -114.5t-107.5 -168t-39 -202.5zM532 1883l117 208l455 -276l-109 -188z" />
<glyph unicode="&#xd3;" horiz-adv-x="1840" d="M68 754q0 166 62.5 310t170 251.5t251.5 169t308 61.5t308.5 -61.5t252 -169t170 -251.5t62.5 -310q0 -164 -62.5 -307.5t-171 -249t-253 -167t-306.5 -61.5q-164 0 -307 61.5t-251.5 167t-171 249t-62.5 307.5zM348 756q0 -106 40 -201.5t108.5 -167.5t162 -114 t201.5 -42q106 0 200.5 42t163 114t108.5 167t40 202q0 106 -39 202.5t-107.5 168t-162.5 114.5t-203 43t-203 -43t-162.5 -114.5t-107.5 -168t-39 -202.5zM612 1815l455 276l117 -208l-463 -256z" />
<glyph unicode="&#xd4;" horiz-adv-x="1840" d="M68 754q0 166 62.5 310t170 251.5t251.5 169t308 61.5t308.5 -61.5t252 -169t170 -251.5t62.5 -310q0 -164 -62.5 -307.5t-171 -249t-253 -167t-306.5 -61.5q-164 0 -307 61.5t-251.5 167t-171 249t-62.5 307.5zM348 756q0 -106 40 -201.5t108.5 -167.5t162 -114 t201.5 -42q106 0 200.5 42t163 114t108.5 167t40 202q0 106 -39 202.5t-107.5 168t-162.5 114.5t-203 43t-203 -43t-162.5 -114.5t-107.5 -168t-39 -202.5zM452 1650l304 283h215l299 -283h-297l-109 131l-115 -131h-297z" />
<glyph unicode="&#xd5;" horiz-adv-x="1840" d="M68 754q0 166 62.5 310t170 251.5t251.5 169t308 61.5t308.5 -61.5t252 -169t170 -251.5t62.5 -310q0 -164 -62.5 -307.5t-171 -249t-253 -167t-306.5 -61.5q-164 0 -307 61.5t-251.5 167t-171 249t-62.5 307.5zM348 756q0 -106 40 -201.5t108.5 -167.5t162 -114 t201.5 -42q106 0 200.5 42t163 114t108.5 167t40 202q0 106 -39 202.5t-107.5 168t-162.5 114.5t-203 43t-203 -43t-162.5 -114.5t-107.5 -168t-39 -202.5zM459 1831q51 39 111.5 63.5t126.5 24.5q39 0 76.5 -9.5t74.5 -20.5t74 -20.5t76 -9.5q84 0 155 48l111 -160 q-53 -43 -107.5 -69.5t-125.5 -26.5q-39 0 -76 8t-73 19t-73 19.5t-75 8.5q-47 0 -85 -10.5t-79 -30.5z" />
<glyph unicode="&#xd6;" horiz-adv-x="1840" d="M68 754q0 166 62.5 310t170 251.5t251.5 169t308 61.5t308.5 -61.5t252 -169t170 -251.5t62.5 -310q0 -164 -62.5 -307.5t-171 -249t-253 -167t-306.5 -61.5q-164 0 -307 61.5t-251.5 167t-171 249t-62.5 307.5zM348 756q0 -106 40 -201.5t108.5 -167.5t162 -114 t201.5 -42q106 0 200.5 42t163 114t108.5 167t40 202q0 106 -39 202.5t-107.5 168t-162.5 114.5t-203 43t-203 -43t-162.5 -114.5t-107.5 -168t-39 -202.5zM508 1650v273h274v-273h-274zM940 1650v273h272v-273h-272z" />
<glyph unicode="&#xd7;" d="M121 193l325 325l-325 326l168 168l325 -326l326 326l168 -168l-328 -326l328 -325l-168 -168l-326 327l-325 -327z" />
<glyph unicode="&#xd8;" horiz-adv-x="1840" d="M68 754q0 166 62.5 310t170 251.5t251.5 169t308 61.5q86 0 170 -18.5t162 -54.5v2l129 192l223 -154l-131 -192q117 -111 178.5 -258.5t61.5 -308.5q0 -164 -62.5 -307.5t-171 -249t-253 -167t-306.5 -61.5q-170 0 -319 68l-125 -182l-226 153l123 180 q-119 111 -182 257.5t-63 308.5zM348 756q0 -92 32 -178t91 -158l567 831q-84 33 -178 33q-109 0 -203 -43t-162.5 -114.5t-107.5 -168t-39 -202.5zM692 260q82 -29 168 -29q106 0 200.5 42t163 114t108.5 167t40 202q0 92 -29.5 177t-85.5 157z" />
<glyph unicode="&#xd9;" horiz-adv-x="1430" d="M113 553v963h280v-963q0 -66 12.5 -124t42 -102t80 -70t127.5 -26q76 0 127.5 26t81 70t42 102t12.5 124v963h280v-963q0 -92 -17.5 -186.5t-70.5 -171.5q-78 -111 -200 -168.5t-253 -57.5q-129 0 -250.5 56.5t-199.5 160.5q-57 76 -75.5 175.5t-18.5 191.5zM256 1883 l117 208l455 -276l-109 -188z" />
<glyph unicode="&#xda;" horiz-adv-x="1430" d="M113 553v963h280v-963q0 -66 12.5 -124t42 -102t80 -70t127.5 -26q76 0 127.5 26t81 70t42 102t12.5 124v963h280v-963q0 -92 -17.5 -186.5t-70.5 -171.5q-78 -111 -200 -168.5t-253 -57.5q-129 0 -250.5 56.5t-199.5 160.5q-57 76 -75.5 175.5t-18.5 191.5zM479 1815 l455 276l117 -208l-463 -256z" />
<glyph unicode="&#xdb;" horiz-adv-x="1430" d="M113 553v963h280v-963q0 -66 12.5 -124t42 -102t80 -70t127.5 -26q76 0 127.5 26t81 70t42 102t12.5 124v963h280v-963q0 -92 -17.5 -186.5t-70.5 -171.5q-78 -111 -200 -168.5t-253 -57.5q-129 0 -250.5 56.5t-199.5 160.5q-57 76 -75.5 175.5t-18.5 191.5zM247 1650 l304 283h215l299 -283h-297l-109 131l-115 -131h-297z" />
<glyph unicode="&#xdc;" horiz-adv-x="1430" d="M113 553v963h280v-963q0 -66 12.5 -124t42 -102t80 -70t127.5 -26q76 0 127.5 26t81 70t42 102t12.5 124v963h280v-963q0 -92 -17.5 -186.5t-70.5 -171.5q-78 -111 -200 -168.5t-253 -57.5q-129 0 -250.5 56.5t-199.5 160.5q-57 76 -75.5 175.5t-18.5 191.5zM303 1650 v273h274v-273h-274zM735 1650v273h272v-273h-272z" />
<glyph unicode="&#xdd;" horiz-adv-x="1389" d="M-4 1516h307l330 -697l332 697h309l-500 -957v-559h-280v559zM458 1815l455 276l117 -208l-463 -256z" />
<glyph unicode="&#xde;" horiz-adv-x="1266" d="M147 0v1516h281v-287h119q61 0 117.5 -3t108.5 -14.5t101.5 -36t98.5 -67.5q78 -68 110.5 -157t32.5 -191t-32.5 -191.5t-110.5 -156.5q-49 -43 -98.5 -68t-101.5 -36t-108.5 -14t-117.5 -3h-119v-291h-281zM428 553h90q55 0 111.5 6t102.5 27.5t75 62.5t29 111 t-28 110.5t-72 62t-98 28t-110 6.5h-100v-414z" />
<glyph unicode="&#xdf;" d="M104 0v999q0 82 15.5 161t49.5 146.5t89 121t137 85.5q41 16 84 24.5t86 8.5q90 0 170 -32.5t140.5 -90t95.5 -136.5t35 -171q0 -80 -32 -157.5t-104 -120.5q154 -37 241 -138.5t87 -261.5q0 -104 -30.5 -191t-90 -150.5t-144.5 -98.5t-192 -35q-121 0 -219 38t-164 149 h-4v-150h-250zM377 387h176q10 -70 63.5 -122t124.5 -52q82 0 133.5 58.5t51.5 138.5q0 84 -38 131t-96.5 70.5t-129 29.5t-134.5 6v242q98 0 151.5 59.5t53.5 155.5q0 80 -44 136t-130 56q-57 0 -93 -24.5t-55.5 -62.5t-26.5 -86t-7 -93v-643z" />
<glyph unicode="&#xe0;" horiz-adv-x="1471" d="M55 575q0 123 42 231.5t117 190.5t179.5 130.5t231.5 48.5q94 0 180 -36t156 -100q10 -10 21 -22t19 -25h5v144h249v-1137h-249v141q-35 -41 -81 -73.5t-99.5 -55t-110 -36t-107.5 -13.5q-129 0 -231.5 50t-174 134t-109.5 195.5t-38 232.5zM328 563q0 -72 25.5 -135 t70.5 -111.5t106.5 -76t135.5 -27.5q76 0 137 28.5t104 78t66.5 114t23.5 137.5q0 74 -23.5 138.5t-66.5 112.5t-104.5 76t-136.5 28q-76 0 -138.5 -30t-106.5 -79t-68.5 -114.5t-24.5 -139.5zM348 1534l117 208l455 -276l-109 -188z" />
<glyph unicode="&#xe1;" horiz-adv-x="1471" d="M55 575q0 123 42 231.5t117 190.5t179.5 130.5t231.5 48.5q94 0 180 -36t156 -100q10 -10 21 -22t19 -25h5v144h249v-1137h-249v141q-35 -41 -81 -73.5t-99.5 -55t-110 -36t-107.5 -13.5q-129 0 -231.5 50t-174 134t-109.5 195.5t-38 232.5zM328 563q0 -72 25.5 -135 t70.5 -111.5t106.5 -76t135.5 -27.5q76 0 137 28.5t104 78t66.5 114t23.5 137.5q0 74 -23.5 138.5t-66.5 112.5t-104.5 76t-136.5 28q-76 0 -138.5 -30t-106.5 -79t-68.5 -114.5t-24.5 -139.5zM428 1466l455 276l117 -208l-463 -256z" />
<glyph unicode="&#xe2;" horiz-adv-x="1471" d="M55 575q0 123 42 231.5t117 190.5t179.5 130.5t231.5 48.5q94 0 180 -36t156 -100q10 -10 21 -22t19 -25h5v144h249v-1137h-249v141q-35 -41 -81 -73.5t-99.5 -55t-110 -36t-107.5 -13.5q-129 0 -231.5 50t-174 134t-109.5 195.5t-38 232.5zM328 563q0 -72 25.5 -135 t70.5 -111.5t106.5 -76t135.5 -27.5q76 0 137 28.5t104 78t66.5 114t23.5 137.5q0 74 -23.5 138.5t-66.5 112.5t-104.5 76t-136.5 28q-76 0 -138.5 -30t-106.5 -79t-68.5 -114.5t-24.5 -139.5zM268 1302l304 283h215l299 -283h-297l-109 131l-115 -131h-297z" />
<glyph unicode="&#xe3;" horiz-adv-x="1471" d="M55 575q0 123 42 231.5t117 190.5t179.5 130.5t231.5 48.5q94 0 180 -36t156 -100q10 -10 21 -22t19 -25h5v144h249v-1137h-249v141q-35 -41 -81 -73.5t-99.5 -55t-110 -36t-107.5 -13.5q-129 0 -231.5 50t-174 134t-109.5 195.5t-38 232.5zM328 563q0 -72 25.5 -135 t70.5 -111.5t106.5 -76t135.5 -27.5q76 0 137 28.5t104 78t66.5 114t23.5 137.5q0 74 -23.5 138.5t-66.5 112.5t-104.5 76t-136.5 28q-76 0 -138.5 -30t-106.5 -79t-68.5 -114.5t-24.5 -139.5zM274 1483q51 39 111.5 63.5t126.5 24.5q39 0 76.5 -9.5t74.5 -20.5t74 -20.5 t76 -9.5q84 0 155 48l111 -160q-53 -43 -107.5 -69.5t-125.5 -26.5q-39 0 -76 8t-73 19t-73 19.5t-75 8.5q-47 0 -85 -10.5t-79 -30.5z" />
<glyph unicode="&#xe4;" horiz-adv-x="1471" d="M55 575q0 123 42 231.5t117 190.5t179.5 130.5t231.5 48.5q94 0 180 -36t156 -100q10 -10 21 -22t19 -25h5v144h249v-1137h-249v141q-35 -41 -81 -73.5t-99.5 -55t-110 -36t-107.5 -13.5q-129 0 -231.5 50t-174 134t-109.5 195.5t-38 232.5zM328 563q0 -72 25.5 -135 t70.5 -111.5t106.5 -76t135.5 -27.5q76 0 137 28.5t104 78t66.5 114t23.5 137.5q0 74 -23.5 138.5t-66.5 112.5t-104.5 76t-136.5 28q-76 0 -138.5 -30t-106.5 -79t-68.5 -114.5t-24.5 -139.5zM324 1302v273h274v-273h-274zM756 1302v273h272v-273h-272z" />
<glyph unicode="&#xe5;" horiz-adv-x="1471" d="M55 575q0 123 42 231.5t117 190.5t179.5 130.5t231.5 48.5q94 0 180 -36t156 -100q10 -10 21 -22t19 -25h5v144h249v-1137h-249v141q-35 -41 -81 -73.5t-99.5 -55t-110 -36t-107.5 -13.5q-129 0 -231.5 50t-174 134t-109.5 195.5t-38 232.5zM328 563q0 -72 25.5 -135 t70.5 -111.5t106.5 -76t135.5 -27.5q76 0 137 28.5t104 78t66.5 114t23.5 137.5q0 74 -23.5 138.5t-66.5 112.5t-104.5 76t-136.5 28q-76 0 -138.5 -30t-106.5 -79t-68.5 -114.5t-24.5 -139.5zM457 1487q0 45 17 84.5t46 70.5t69 48.5t87 17.5q45 0 86 -17.5t70.5 -47.5 t47 -70.5t17.5 -85.5t-17.5 -85t-48 -70t-70.5 -47.5t-85 -17.5t-85 17.5t-70 47.5t-47 70t-17 85zM594 1487q0 -35 23.5 -58.5t58.5 -23.5t59.5 23.5t24.5 58.5t-25 59t-59 24q-35 0 -58.5 -24t-23.5 -59z" />
<glyph unicode="&#xe6;" horiz-adv-x="2331" d="M59 567q0 121 45.5 231.5t124 194.5t186 133.5t230.5 49.5q113 0 190.5 -32t157.5 -110v103h250v-103q74 78 157 110t191 32q113 0 214.5 -51.5t177 -135.5t119.5 -189.5t44 -215.5v-37q0 -25 -2 -50.5t-6 -50.5h-885q12 -49 42 -92t72 -74.5t91 -49t101 -17.5 q39 0 79.5 8t77.5 25.5t66.5 45t46.5 66.5h287q-12 -39 -33 -74.5t-43 -68.5q-82 -111 -202 -181.5t-259 -70.5q-102 0 -185 34t-147 118h-4v-115h-250v115h-4q-59 -84 -153.5 -118t-194.5 -34q-123 0 -228.5 49t-184 133t-124 192.5t-45.5 229.5zM332 565q0 -68 24.5 -131 t67.5 -112.5t102.5 -79t130.5 -29.5q72 0 132.5 29.5t103.5 79t67.5 114t24.5 133.5q0 68 -23.5 132.5t-66.5 114.5t-103.5 80t-132.5 30q-74 0 -134 -30t-103 -80t-66.5 -115.5t-23.5 -135.5zM1245 666h629q-8 59 -36 107t-70 82t-95 52.5t-112 18.5q-119 0 -204 -72.5 t-112 -187.5z" />
<glyph unicode="&#xe7;" horiz-adv-x="1430" d="M76 573q0 125 47 235t129 191.5t191.5 129t234.5 47.5q100 0 190 -30t164 -84t130.5 -131t86.5 -171h-307q-45 80 -105.5 123t-158.5 43q-76 0 -137.5 -29t-104.5 -77t-65.5 -112.5t-22.5 -138.5t24.5 -138t69.5 -113.5t108.5 -77t139.5 -27.5q86 0 147.5 44t104.5 114 h307q-70 -193 -220 -300.5t-355 -107.5l-35 -76q12 2 25.5 3t25.5 1q88 0 139.5 -59t51.5 -145q0 -92 -56.5 -146.5t-148.5 -54.5q-37 0 -73 13.5t-65.5 37t-48 56t-18.5 71.5h109q6 -35 33.5 -55.5t62.5 -20.5q43 0 68.5 29t25.5 70t-27.5 71.5t-68.5 30.5q-29 0 -51.5 -10 t-36.5 -35l-101 39l84 192q-109 20 -198.5 74.5t-155 134.5t-102.5 179t-37 210z" />
<glyph unicode="&#xe8;" horiz-adv-x="1430" d="M63 565q0 127 45.5 238.5t125 194.5t189 130.5t239.5 47.5q125 0 232 -46.5t186 -126t124 -188t45 -231.5q0 -66 -16 -138h-883q4 -23 14.5 -43t22.5 -38q47 -72 119 -112t158 -40q84 0 152.5 35t109.5 110h286q-29 -86 -83 -158.5t-127.5 -124.5t-160.5 -82t-177 -30 q-127 0 -237 46t-190.5 128t-127 191.5t-46.5 236.5zM342 666h629q-20 123 -101.5 191.5t-205.5 68.5q-125 0 -209 -68.5t-113 -191.5zM327 1534l117 208l455 -276l-109 -188z" />
<glyph unicode="&#xe9;" horiz-adv-x="1430" d="M63 565q0 127 45.5 238.5t125 194.5t189 130.5t239.5 47.5q125 0 232 -46.5t186 -126t124 -188t45 -231.5q0 -66 -16 -138h-883q4 -23 14.5 -43t22.5 -38q47 -72 119 -112t158 -40q84 0 152.5 35t109.5 110h286q-29 -86 -83 -158.5t-127.5 -124.5t-160.5 -82t-177 -30 q-127 0 -237 46t-190.5 128t-127 191.5t-46.5 236.5zM342 666h629q-20 123 -101.5 191.5t-205.5 68.5q-125 0 -209 -68.5t-113 -191.5zM407 1466l455 276l117 -208l-463 -256z" />
<glyph unicode="&#xea;" horiz-adv-x="1430" d="M63 565q0 127 45.5 238.5t125 194.5t189 130.5t239.5 47.5q125 0 232 -46.5t186 -126t124 -188t45 -231.5q0 -66 -16 -138h-883q4 -23 14.5 -43t22.5 -38q47 -72 119 -112t158 -40q84 0 152.5 35t109.5 110h286q-29 -86 -83 -158.5t-127.5 -124.5t-160.5 -82t-177 -30 q-127 0 -237 46t-190.5 128t-127 191.5t-46.5 236.5zM342 666h629q-20 123 -101.5 191.5t-205.5 68.5q-125 0 -209 -68.5t-113 -191.5zM247 1302l304 283h215l299 -283h-297l-109 131l-115 -131h-297z" />
<glyph unicode="&#xeb;" horiz-adv-x="1430" d="M63 565q0 127 45.5 238.5t125 194.5t189 130.5t239.5 47.5q125 0 232 -46.5t186 -126t124 -188t45 -231.5q0 -66 -16 -138h-883q4 -23 14.5 -43t22.5 -38q47 -72 119 -112t158 -40q84 0 152.5 35t109.5 110h286q-29 -86 -83 -158.5t-127.5 -124.5t-160.5 -82t-177 -30 q-127 0 -237 46t-190.5 128t-127 191.5t-46.5 236.5zM342 666h629q-20 123 -101.5 191.5t-205.5 68.5q-125 0 -209 -68.5t-113 -191.5zM303 1302v273h274v-273h-274zM735 1302v273h272v-273h-272z" />
<glyph unicode="&#xec;" horiz-adv-x="611" d="M109 0v1137h272v-1137h-272zM-131 1534l117 208l455 -276l-109 -188z" />
<glyph unicode="&#xed;" horiz-adv-x="611" d="M109 0v1137h272v-1137h-272zM51 1466l455 276l117 -208l-463 -256z" />
<glyph unicode="&#xee;" horiz-adv-x="611" d="M109 0v1137h272v-1137h-272zM-160 1302l304 283h215l299 -283h-297l-109 131l-115 -131h-297z" />
<glyph unicode="&#xef;" horiz-adv-x="611" d="M109 0v1137h272v-1137h-272zM-104 1302v273h274v-273h-274zM328 1302v273h272v-273h-272z" />
<glyph unicode="&#xf0;" horiz-adv-x="1430" d="M55 567q0 125 47.5 235.5t130 193.5t192.5 130.5t237 47.5q29 0 55 -5.5t51 -17.5l4 4q-66 61 -135 109l-309 -93l-176 115l294 90q-106 51 -217 84l308 84q49 -14 95 -35.5t91 -46.5l268 82l176 -123l-270 -80q168 -141 266.5 -327.5t98.5 -409.5q0 -133 -43 -248.5 t-121 -204t-188.5 -138.5t-247.5 -50q-125 0 -235 48t-192.5 130t-131 191.5t-48.5 234.5zM328 567q0 -72 24.5 -136t68.5 -112.5t105.5 -77t135.5 -28.5q72 0 132 28.5t104 78t68.5 113t24.5 132.5q0 68 -24.5 132.5t-67.5 115.5t-103.5 82t-131.5 31q-74 0 -135.5 -30 t-105.5 -80t-69.5 -114.5t-25.5 -134.5z" />
<glyph unicode="&#xf1;" d="M111 0v1137h251v-99q68 66 140.5 102t171.5 36q47 0 95 -11.5t93 -32t84 -49t70 -65.5q66 -80 85 -183.5t19 -203.5v-631h-272v561q0 59 -7 124t-32 118t-70 88t-121 35q-53 0 -104 -28t-82 -73q-18 -27 -28.5 -62.5t-14.5 -74.5t-5 -78t-1 -69v-541h-272zM213 1483 q51 39 111.5 63.5t126.5 24.5q39 0 76.5 -9.5t74.5 -20.5t74 -20.5t76 -9.5q84 0 155 48l111 -160q-53 -43 -107.5 -69.5t-125.5 -26.5q-39 0 -76 8t-73 19t-73 19.5t-75 8.5q-47 0 -85 -10.5t-79 -30.5z" />
<glyph unicode="&#xf2;" horiz-adv-x="1430" d="M51 567q0 125 47 235.5t130 193.5t192.5 131.5t236.5 48.5q125 0 236 -47.5t191.5 -129t128 -192.5t47.5 -236q0 -129 -46.5 -240.5t-126 -192.5t-190.5 -128t-240 -47q-125 0 -234.5 48t-192.5 130t-131 191.5t-48 234.5zM324 567q0 -72 24.5 -136t68.5 -112.5 t105.5 -77t134.5 -28.5q72 0 132.5 28.5t104.5 78t68.5 113t24.5 132.5q0 68 -24.5 133.5t-68.5 115.5t-104.5 81t-132.5 31t-133 -30t-106 -80t-69.5 -114.5t-24.5 -134.5zM327 1534l117 208l455 -276l-109 -188z" />
<glyph unicode="&#xf3;" horiz-adv-x="1430" d="M51 567q0 125 47 235.5t130 193.5t192.5 131.5t236.5 48.5q125 0 236 -47.5t191.5 -129t128 -192.5t47.5 -236q0 -129 -46.5 -240.5t-126 -192.5t-190.5 -128t-240 -47q-125 0 -234.5 48t-192.5 130t-131 191.5t-48 234.5zM324 567q0 -72 24.5 -136t68.5 -112.5 t105.5 -77t134.5 -28.5q72 0 132.5 28.5t104.5 78t68.5 113t24.5 132.5q0 68 -24.5 133.5t-68.5 115.5t-104.5 81t-132.5 31t-133 -30t-106 -80t-69.5 -114.5t-24.5 -134.5zM407 1466l455 276l117 -208l-463 -256z" />
<glyph unicode="&#xf4;" horiz-adv-x="1430" d="M51 567q0 125 47 235.5t130 193.5t192.5 131.5t236.5 48.5q125 0 236 -47.5t191.5 -129t128 -192.5t47.5 -236q0 -129 -46.5 -240.5t-126 -192.5t-190.5 -128t-240 -47q-125 0 -234.5 48t-192.5 130t-131 191.5t-48 234.5zM324 567q0 -72 24.5 -136t68.5 -112.5 t105.5 -77t134.5 -28.5q72 0 132.5 28.5t104.5 78t68.5 113t24.5 132.5q0 68 -24.5 133.5t-68.5 115.5t-104.5 81t-132.5 31t-133 -30t-106 -80t-69.5 -114.5t-24.5 -134.5zM247 1302l304 283h215l299 -283h-297l-109 131l-115 -131h-297z" />
<glyph unicode="&#xf5;" horiz-adv-x="1430" d="M51 567q0 125 47 235.5t130 193.5t192.5 131.5t236.5 48.5q125 0 236 -47.5t191.5 -129t128 -192.5t47.5 -236q0 -129 -46.5 -240.5t-126 -192.5t-190.5 -128t-240 -47q-125 0 -234.5 48t-192.5 130t-131 191.5t-48 234.5zM324 567q0 -72 24.5 -136t68.5 -112.5 t105.5 -77t134.5 -28.5q72 0 132.5 28.5t104.5 78t68.5 113t24.5 132.5q0 68 -24.5 133.5t-68.5 115.5t-104.5 81t-132.5 31t-133 -30t-106 -80t-69.5 -114.5t-24.5 -134.5zM254 1483q51 39 111.5 63.5t126.5 24.5q39 0 76.5 -9.5t74.5 -20.5t74 -20.5t76 -9.5q84 0 155 48 l111 -160q-53 -43 -107.5 -69.5t-125.5 -26.5q-39 0 -76 8t-73 19t-73 19.5t-75 8.5q-47 0 -85 -10.5t-79 -30.5z" />
<glyph unicode="&#xf6;" horiz-adv-x="1430" d="M51 567q0 125 47 235.5t130 193.5t192.5 131.5t236.5 48.5q125 0 236 -47.5t191.5 -129t128 -192.5t47.5 -236q0 -129 -46.5 -240.5t-126 -192.5t-190.5 -128t-240 -47q-125 0 -234.5 48t-192.5 130t-131 191.5t-48 234.5zM324 567q0 -72 24.5 -136t68.5 -112.5 t105.5 -77t134.5 -28.5q72 0 132.5 28.5t104.5 78t68.5 113t24.5 132.5q0 68 -24.5 133.5t-68.5 115.5t-104.5 81t-132.5 31t-133 -30t-106 -80t-69.5 -114.5t-24.5 -134.5zM303 1302v273h274v-273h-274zM735 1302v273h272v-273h-272z" />
<glyph unicode="&#xf7;" d="M98 395v246h1032v-246h-1032zM492 -41v246h245v-246h-245zM492 831v246h245v-246h-245z" />
<glyph unicode="&#xf8;" horiz-adv-x="1471" d="M72 567q0 125 47 235.5t130 193.5t192.5 131.5t236.5 48.5q123 0 237 -50l80 119l203 -141l-82 -119q80 -86 122 -191.5t42 -222.5q0 -129 -46 -240.5t-126 -192.5t-190.5 -128t-239.5 -47q-115 0 -227 45l-78 -110l-203 139l76 110q-84 84 -129 192.5t-45 227.5z M344 567q0 -109 55 -196l369 540q-41 14 -90 15q-72 0 -133.5 -30t-106.5 -80t-69.5 -114.5t-24.5 -134.5zM596 223q45 -10 82 -10q72 0 132 28.5t104 78t69 113t25 132.5q0 49 -12.5 97.5t-39.5 89.5z" />
<glyph unicode="&#xf9;" d="M102 535v602h273v-580q0 -61 8 -122.5t33.5 -111t72 -80t123.5 -30.5q70 0 115 31.5t70.5 82t35 111t9.5 117.5v582h272v-1137h-250v115h-4q-57 -78 -125.5 -115t-167.5 -37q-111 0 -214 44t-167 136q-59 86 -71.5 189t-12.5 203zM215 1534l117 208l455 -276l-109 -188z " />
<glyph unicode="&#xfa;" d="M102 535v602h273v-580q0 -61 8 -122.5t33.5 -111t72 -80t123.5 -30.5q70 0 115 31.5t70.5 82t35 111t9.5 117.5v582h272v-1137h-250v115h-4q-57 -78 -125.5 -115t-167.5 -37q-111 0 -214 44t-167 136q-59 86 -71.5 189t-12.5 203zM438 1466l455 276l117 -208l-463 -256z " />
<glyph unicode="&#xfb;" d="M102 535v602h273v-580q0 -61 8 -122.5t33.5 -111t72 -80t123.5 -30.5q70 0 115 31.5t70.5 82t35 111t9.5 117.5v582h272v-1137h-250v115h-4q-57 -78 -125.5 -115t-167.5 -37q-111 0 -214 44t-167 136q-59 86 -71.5 189t-12.5 203zM206 1302l304 283h215l299 -283h-297 l-109 131l-115 -131h-297z" />
<glyph unicode="&#xfc;" d="M102 535v602h273v-580q0 -61 8 -122.5t33.5 -111t72 -80t123.5 -30.5q70 0 115 31.5t70.5 82t35 111t9.5 117.5v582h272v-1137h-250v115h-4q-57 -78 -125.5 -115t-167.5 -37q-111 0 -214 44t-167 136q-59 86 -71.5 189t-12.5 203zM262 1302v273h274v-273h-274zM694 1302 v273h272v-273h-272z" />
<glyph unicode="&#xfd;" horiz-adv-x="1307" d="M16 1137h312l258 -729l274 729h309l-653 -1516h-293l209 485zM418 1466l455 276l117 -208l-463 -256z" />
<glyph unicode="&#xfe;" horiz-adv-x="1471" d="M96 -379v1895h273v-504h4q133 164 346 164q125 0 229.5 -48.5t180 -131.5t117.5 -192.5t42 -230.5t-42 -231.5t-117.5 -194.5t-180 -134t-229.5 -50q-111 0 -192 36t-158 110v-488h-273zM352 569q0 -106 50.5 -192t148.5 -131q66 -33 133 -33q72 0 133.5 29.5t105.5 79 t68.5 114t24.5 133.5q0 68 -24.5 132.5t-67.5 114.5t-103.5 80t-132.5 30q-74 0 -135 -29t-106.5 -78t-70 -113.5t-24.5 -136.5z" />
<glyph unicode="&#xff;" horiz-adv-x="1307" d="M16 1137h312l258 -729l274 729h309l-653 -1516h-293l209 485zM242 1302v273h274v-273h-274zM674 1302v273h272v-273h-272z" />
<glyph unicode="&#x131;" horiz-adv-x="611" d="M109 0v1137h272v-1137h-272z" />
<glyph unicode="&#x152;" horiz-adv-x="2290" d="M76 756q0 117 29.5 226.5t87 202.5t141.5 167.5t192 124.5q150 70 310 69q63 0 132.5 -12t135 -36.5t125 -60.5t102.5 -85v164h731v-263h-450v-370h426v-262h-426v-359h450v-262h-731v162q-43 -47 -102.5 -83t-126 -60.5t-135 -37t-131.5 -12.5q-160 0 -310 70 q-106 49 -190 124t-141.5 167t-88 200.5t-30.5 225.5zM356 729q0 -47 10.5 -92t26.5 -86q59 -145 180 -232.5t279 -87.5q104 0 194.5 42t156 114t102 165t36.5 196q0 104 -36.5 200t-102 171t-157 120t-199.5 45q-115 0 -206 -46t-154.5 -124t-96.5 -178.5t-33 -206.5z" />
<glyph unicode="&#x153;" horiz-adv-x="2331" d="M61 567q0 123 46.5 233.5t127 193.5t190.5 132.5t234 49.5q143 0 256 -59.5t197 -174.5q86 117 192.5 175.5t254.5 58.5q121 0 228 -46.5t188 -125t128 -185t47 -229.5q0 -74 -12 -144h-889q31 -104 117 -168.5t195 -64.5q80 0 156.5 35t111.5 110h282 q-29 -86 -84 -158.5t-128.5 -124.5t-159.5 -82t-178 -30q-135 0 -254 61.5t-195 176.5q-82 -123 -195.5 -180.5t-261.5 -57.5q-125 0 -233.5 48t-188 130t-126 192.5t-46.5 233.5zM334 578q0 -72 23.5 -137.5t67.5 -116t105.5 -81t135.5 -30.5q72 0 132 29.5t104 79 t68.5 113t24.5 132.5q0 70 -24.5 134.5t-68.5 114.5t-105.5 80t-132.5 30q-70 0 -130.5 -29t-104.5 -77t-69.5 -111t-25.5 -131zM1245 666h629q-29 115 -111 187.5t-202 72.5q-125 0 -204 -71.5t-112 -188.5z" />
<glyph unicode="&#x178;" horiz-adv-x="1389" d="M-4 1516h307l330 -697l332 697h309l-500 -957v-559h-280v559zM283 1650v273h274v-273h-274zM715 1650v273h272v-273h-272z" />
<glyph unicode="&#x2c6;" horiz-adv-x="1225" d="M145 1292l304 283h215l299 -283h-297l-109 131l-115 -131h-297z" />
<glyph unicode="&#x2da;" horiz-adv-x="857" d="M150 1430q0 45 17 84.5t46 70.5t69 48.5t87 17.5q45 0 86 -17.5t70.5 -47.5t47 -70.5t17.5 -85.5t-17.5 -85t-48 -70t-70.5 -47.5t-85 -17.5t-85 17.5t-70 47.5t-47 70t-17 85zM287 1430q0 -35 23.5 -58.5t58.5 -23.5t59.5 23.5t24.5 58.5t-25 59t-59 24q-35 0 -58.5 -24 t-23.5 -59z" />
<glyph unicode="&#x2dc;" horiz-adv-x="1103" d="M90 1483q51 39 111.5 63.5t126.5 24.5q39 0 76.5 -9.5t74.5 -20.5t74 -20.5t76 -9.5q84 0 155 48l111 -160q-53 -43 -107.5 -69.5t-125.5 -26.5q-39 0 -76 8t-73 19t-73 19.5t-75 8.5q-47 0 -85 -10.5t-79 -30.5z" />
<glyph unicode="&#x2000;" horiz-adv-x="1164" />
<glyph unicode="&#x2001;" horiz-adv-x="2211" />
<glyph unicode="&#x2002;" horiz-adv-x="1164" />
<glyph unicode="&#x2003;" horiz-adv-x="2211" />
<glyph unicode="&#x2004;" horiz-adv-x="816" />
<glyph unicode="&#x2005;" horiz-adv-x="642" />
<glyph unicode="&#x2006;" horiz-adv-x="468" />
<glyph unicode="&#x2007;" horiz-adv-x="468" />
<glyph unicode="&#x2008;" horiz-adv-x="380" />
<glyph unicode="&#x2009;" horiz-adv-x="537" />
<glyph unicode="&#x200a;" horiz-adv-x="234" />
<glyph unicode="&#x2010;" horiz-adv-x="980" d="M145 471v242h570v-242h-570z" />
<glyph unicode="&#x2011;" horiz-adv-x="980" d="M145 471v242h570v-242h-570z" />
<glyph unicode="&#x2012;" horiz-adv-x="980" d="M145 471v242h570v-242h-570z" />
<glyph unicode="&#x2013;" horiz-adv-x="1144" d="M72 471v242h880v-242h-880z" />
<glyph unicode="&#x2014;" horiz-adv-x="2168" d="M72 471v242h1904v-242h-1904z" />
<glyph unicode="&#x2018;" horiz-adv-x="693" d="M147 954v289q0 127 73 200t198 73v-140q-51 -10 -85 -32.5t-34 -81.5v-18q0 -7 2 -17h119v-273h-273z" />
<glyph unicode="&#x2019;" horiz-adv-x="693" d="M147 1243v273h273v-289q0 -127 -73 -200t-197 -73v138q37 8 60 18t36.5 27.5t17.5 43t4 62.5h-121z" />
<glyph unicode="&#x201a;" horiz-adv-x="693" d="M147 0v272h273v-286q0 -125 -73 -200t-197 -75v139q76 12 97 44t21 106h-121z" />
<glyph unicode="&#x201c;" horiz-adv-x="1103" d="M143 954v289q0 127 73 200t198 73v-140q-51 -10 -85 -32.5t-34 -81.5q0 -10 1 -17.5t1 -17.5h119v-273h-273zM567 954v289q0 127 73 200t198 73v-140q-51 -10 -85 -32.5t-34 -81.5q0 -10 1 -17.5t1 -17.5h119v-273h-273z" />
<glyph unicode="&#x201d;" horiz-adv-x="1103" d="M143 1243v273h273v-289q0 -127 -73 -200t-198 -73v138q37 8 60.5 18t37 27.5t17.5 43t4 62.5h-121zM567 1243v273h273v-289q0 -127 -73 -200t-198 -73v138q37 8 60.5 18t37 27.5t17.5 43t4 62.5h-121z" />
<glyph unicode="&#x201e;" horiz-adv-x="1103" d="M143 0v272h273v-286q0 -127 -73 -201t-198 -74v139q76 12 97.5 44t21.5 106h-121zM567 0v272h273v-286q0 -127 -73 -201t-198 -74v139q76 12 97.5 44t21.5 106h-121z" />
<glyph unicode="&#x2022;" d="M303 772q0 66 24.5 123t67.5 100t100.5 69t122.5 26q66 0 122.5 -26t98.5 -70t65.5 -101t23.5 -121q0 -66 -24.5 -123t-66.5 -100t-98.5 -68.5t-122.5 -25.5t-123 25.5t-99 68.5t-66.5 100t-24.5 123z" />
<glyph unicode="&#x2026;" horiz-adv-x="2168" d="M205 0v272h272v-272h-272zM887 0v272h272v-272h-272zM1569 0v272h272v-272h-272z" />
<glyph unicode="&#x202f;" horiz-adv-x="537" />
<glyph unicode="&#x2039;" horiz-adv-x="611" d="M102 489v207l287 265v-252l-139 -117l139 -119v-252z" />
<glyph unicode="&#x203a;" horiz-adv-x="611" d="M102 221v252l140 119l-140 117v252l287 -265v-207z" />
<glyph unicode="&#x205f;" horiz-adv-x="642" />
<glyph unicode="&#x20ac;" horiz-adv-x="1266" d="M0 481l70 195h84v82v30h-154l70 195h98q16 113 44 210t85 171q59 78 147 129t218 51q104 0 181 -32.5t134 -92.5q53 -59 84 -134t41 -163h-256q-8 35 -19.5 66t-33.5 51q-47 47 -131 47q-66 0 -107 -24.5t-70 -73.5q-23 -37 -32 -87t-17 -118h557l-69 -195h-498v-30v-82 h457l-72 -195h-369q8 -49 16.5 -88t26.5 -67q29 -49 71 -73t110 -24q94 0 141 54q20 23 29.5 51t17.5 63h254q-16 -98 -47 -177t-88 -134t-134 -85t-184 -30q-125 0 -209 42t-143 114q-59 70 -88 159t-45 195h-170z" />
<glyph unicode="&#x2122;" horiz-adv-x="2168" d="M18 1346v170h543v-170h-176v-740h-192v740h-175zM682 606v910h258l244 -660l241 660h256v-910h-192v627h-4l-223 -627h-160l-223 627h-5v-627h-192z" />
<glyph unicode="&#xe000;" horiz-adv-x="1135" d="M0 1135h1135v-1135h-1135v1135z" />
<glyph unicode="&#xfb01;" horiz-adv-x="1184" d="M682 0v1137h272v-1137h-272zM682 1266v250h272v-250h-272zM31 895v242h96q8 92 34.5 172t98.5 145q47 43 109.5 67.5t128.5 24.5h75v-268q-43 0 -74.5 -4t-52 -18.5t-33 -42t-14.5 -76.5h160v-242h-160v-895h-272v895h-96z" />
<glyph unicode="&#xfb02;" horiz-adv-x="1184" d="M684 0v1516h272v-1516h-272zM31 895v242h96q8 92 34.5 172t98.5 145q47 43 109.5 67.5t128.5 24.5h75v-268q-43 0 -74.5 -4t-52 -18.5t-33 -42t-14.5 -76.5h160v-242h-160v-895h-272v895h-96z" />
<glyph unicode="&#xfb03;" horiz-adv-x="1758" d="M1256 0v1137h272v-1137h-272zM1256 1266v250h272v-250h-272zM604 895v242h96q8 92 34.5 172t98.5 145q47 43 109.5 67.5t128.5 24.5h75v-268q-43 0 -74.5 -4t-52 -18.5t-33 -42t-14.5 -76.5h160v-242h-160v-895h-272v895h-96zM31 895v242h96q8 92 34.5 172t98.5 145 q47 43 109.5 67.5t128.5 24.5h75v-268q-43 0 -74.5 -4t-52 -18.5t-33 -42t-14.5 -76.5h160v-242h-160v-895h-272v895h-96z" />
<glyph unicode="&#xfb04;" horiz-adv-x="1758" d="M1258 0v1516h272v-1516h-272zM604 895v242h96q8 92 34.5 172t98.5 145q47 43 109.5 67.5t128.5 24.5h75v-268q-43 0 -74.5 -4t-52 -18.5t-33 -42t-14.5 -76.5h160v-242h-160v-895h-272v895h-96zM31 895v242h96q8 92 34.5 172t98.5 145q47 43 109.5 67.5t128.5 24.5h75 v-268q-43 0 -74.5 -4t-52 -18.5t-33 -42t-14.5 -76.5h160v-242h-160v-895h-272v895h-96z" />
</font>
</defs>
</svg>
